{"glyphs":{"0":{"ha":1006,"x_min":0,"x_max":0,"o":"m 501 -17 b 926 486 757 -17 926 208 l 926 489 b 504 989 926 767 758 989 b 79 486 249 989 79 764 l 79 483 b 501 -17 79 206 246 -17 z m 504 138 b 256 486 353 138 256 294 l 256 489 b 501 835 256 682 351 835 b 750 486 651 835 750 678 l 750 483 b 504 138 750 292 656 138 z "},"1":{"ha":550,"x_min":0,"x_max":0,"o":"m 247 0 l 417 0 l 417 979 l 297 979 l 36 896 l 72 757 l 247 806 z "},"2":{"ha":851,"x_min":0,"x_max":0,"o":"m 68 0 l 771 0 l 771 150 l 308 150 l 508 317 b 761 693 681 457 761 540 l 761 696 b 440 986 761 869 631 986 b 82 782 267 986 175 913 l 203 688 b 428 833 278 785 339 833 b 585 682 517 833 585 778 b 403 419 585 594 536 532 l 68 135 z "},"3":{"ha":858,"x_min":0,"x_max":0,"o":"m 432 -17 b 772 290 633 -17 772 111 l 772 293 b 486 567 772 474 633 547 l 757 844 l 757 972 l 114 972 l 114 824 l 535 824 l 272 544 l 300 438 l 379 438 b 603 288 515 438 603 383 l 603 285 b 435 138 603 196 531 138 b 179 265 326 138 249 183 l 60 154 b 432 -17 142 54 263 -17 z "},"4":{"ha":946,"x_min":0,"x_max":0,"o":"m 572 0 l 736 0 l 736 218 l 875 218 l 875 358 l 736 358 l 736 979 l 590 979 l 50 340 l 82 218 l 572 218 z m 253 358 l 572 743 l 572 358 z "},"5":{"ha":864,"x_min":0,"x_max":0,"o":"m 422 -17 b 782 313 638 -17 782 114 l 782 315 b 444 621 782 521 633 621 b 290 593 379 621 336 610 l 306 821 l 739 821 l 739 972 l 158 972 l 131 496 l 233 428 b 413 471 283 451 343 471 b 614 310 531 471 614 408 l 614 307 b 421 139 614 206 538 139 b 171 256 331 139 249 183 l 65 132 b 422 -17 157 43 274 -17 z "},"6":{"ha":911,"x_min":0,"x_max":0,"o":"m 468 -17 b 829 314 672 -17 829 121 l 829 317 b 489 622 829 511 678 622 b 257 525 375 622 308 575 b 490 833 265 703 346 833 b 701 749 575 833 633 801 l 793 881 b 496 989 708 949 622 989 b 79 460 221 989 79 757 l 79 457 b 197 85 79 261 124 160 b 468 -17 263 21 349 -17 z m 464 131 b 263 306 342 131 263 207 l 263 308 b 460 479 263 401 339 479 b 658 310 581 479 658 407 l 658 307 b 464 131 658 207 585 131 z "},"7":{"ha":846,"x_min":0,"x_max":0,"o":"m 147 0 l 339 0 l 778 843 l 778 972 l 94 972 l 94 822 l 583 822 z "},"8":{"ha":875,"x_min":0,"x_max":0,"o":"m 438 -14 b 808 268 650 -14 808 94 l 808 271 b 633 504 808 386 739 456 b 775 721 715 547 775 613 l 775 724 b 438 986 775 874 632 986 b 100 724 243 986 100 872 l 100 721 b 242 504 100 613 160 547 b 67 267 132 458 67 385 l 67 264 b 438 -14 67 97 225 -14 z m 438 561 b 264 706 338 561 264 621 l 264 708 b 438 843 264 782 333 843 b 611 707 542 843 611 782 l 611 704 b 438 561 611 621 538 561 z m 438 129 b 233 275 310 129 233 196 l 233 278 b 438 425 233 367 322 425 b 642 278 553 425 642 367 l 642 275 b 438 129 642 194 565 129 z "},"9":{"ha":911,"x_min":0,"x_max":0,"o":"m 415 -17 b 832 513 676 -17 832 200 l 832 515 b 714 886 832 707 786 814 b 444 989 646 954 567 989 b 82 653 229 989 82 843 l 82 650 b 426 342 82 463 219 342 b 654 444 531 342 606 386 b 419 139 649 265 563 139 b 197 231 336 139 271 168 l 104 100 b 415 -17 186 32 281 -17 z m 451 485 b 253 658 331 485 253 557 l 253 661 b 446 842 253 761 325 842 b 649 663 569 842 649 764 l 649 660 b 451 485 649 565 575 485 z "},"A":{"ha":1097,"x_min":0,"x_max":0,"o":"m 42 0 l 217 0 l 317 235 l 776 235 l 875 0 l 1056 0 l 628 979 l 469 979 z m 379 386 l 546 775 l 714 386 z "},"B":{"ha":1003,"x_min":0,"x_max":0,"o":"m 125 0 l 575 0 b 935 267 792 0 935 93 l 935 269 b 742 506 935 401 856 467 b 881 722 814 543 881 606 l 881 725 b 815 886 881 790 858 843 b 561 972 760 942 672 972 l 125 972 z m 293 563 l 293 821 l 539 821 b 710 697 649 821 710 774 l 710 694 b 526 563 710 606 636 563 z m 293 151 l 293 418 l 564 418 b 764 288 699 418 764 369 l 764 285 b 576 151 764 197 693 151 z "},"C":{"ha":1025,"x_min":0,"x_max":0,"o":"m 576 -17 b 971 156 758 -17 869 50 l 861 267 b 582 140 778 189 701 140 b 261 486 396 140 261 296 l 261 489 b 582 832 261 679 396 832 b 854 711 693 832 776 783 l 964 838 b 583 989 871 926 763 989 b 82 486 289 989 82 763 l 82 483 b 576 -17 82 204 293 -17 z "},"D":{"ha":1086,"x_min":0,"x_max":0,"o":"m 125 0 l 488 0 b 1004 486 793 0 1004 213 l 1004 489 b 488 972 1004 763 793 972 l 125 972 z m 296 156 l 296 817 l 488 817 b 825 486 692 817 825 676 l 825 483 b 488 156 825 293 692 156 z "},"E":{"ha":931,"x_min":0,"x_max":0,"o":"m 125 0 l 853 0 l 853 153 l 296 153 l 296 414 l 783 414 l 783 567 l 296 567 l 296 819 l 846 819 l 846 972 l 125 972 z "},"F":{"ha":911,"x_min":0,"x_max":0,"o":"m 125 0 l 296 0 l 296 396 l 786 396 l 786 551 l 296 551 l 296 817 l 849 817 l 849 972 l 125 972 z "},"G":{"ha":1089,"x_min":0,"x_max":0,"o":"m 586 -17 b 992 135 758 -17 896 53 l 992 543 l 578 543 l 578 394 l 826 394 l 826 213 b 592 139 767 168 683 139 b 261 486 393 139 261 286 l 261 489 b 576 832 261 675 397 832 b 849 728 700 832 774 792 l 957 857 b 583 989 857 942 753 989 b 82 486 290 989 82 758 l 82 483 b 586 -17 82 200 282 -17 z "},"H":{"ha":1056,"x_min":0,"x_max":0,"o":"m 125 0 l 296 0 l 296 410 l 760 410 l 760 0 l 931 0 l 931 972 l 760 972 l 760 568 l 296 568 l 296 972 l 125 972 z "},"I":{"ha":440,"x_min":0,"x_max":0,"o":"m 135 0 l 306 0 l 306 972 l 135 972 z "},"J":{"ha":776,"x_min":0,"x_max":0,"o":"m 340 -14 b 576 72 438 -14 519 15 b 667 331 633 129 667 215 l 667 972 l 492 972 l 492 335 b 338 144 492 206 429 144 b 142 258 256 144 199 186 l 29 143 b 340 -14 93 56 190 -14 z "},"K":{"ha":1007,"x_min":0,"x_max":0,"o":"m 125 0 l 296 0 l 296 282 l 447 438 l 779 0 l 986 0 l 564 554 l 968 972 l 758 972 l 296 483 l 296 972 l 125 972 z "},"L":{"ha":860,"x_min":0,"x_max":0,"o":"m 125 0 l 807 0 l 807 156 l 296 156 l 296 972 l 125 972 z "},"M":{"ha":1206,"x_min":0,"x_max":0,"o":"m 125 0 l 293 0 l 293 694 l 597 239 l 603 239 l 910 697 l 910 0 l 1081 0 l 1081 972 l 899 972 l 603 513 l 307 972 l 125 972 z "},"N":{"ha":1097,"x_min":0,"x_max":0,"o":"m 125 0 l 293 0 l 293 692 l 829 0 l 972 0 l 972 972 l 804 972 l 804 300 l 283 972 l 125 972 z "},"O":{"ha":1181,"x_min":0,"x_max":0,"o":"m 589 -17 b 1099 486 888 -17 1099 213 l 1099 489 b 592 989 1099 763 890 989 b 82 486 293 989 82 760 l 82 483 b 589 -17 82 210 290 -17 z m 592 140 b 261 486 399 140 261 297 l 261 489 b 589 832 261 678 396 832 b 919 486 782 832 919 675 l 919 483 b 592 140 919 294 785 140 z "},"P":{"ha":928,"x_min":0,"x_max":0,"o":"m 125 0 l 296 0 l 296 313 l 489 313 b 878 644 703 313 878 426 l 878 647 b 508 972 878 843 735 972 l 125 972 z m 296 467 l 296 817 l 494 817 b 704 643 622 817 704 757 l 704 640 b 494 467 704 539 624 467 z "},"Q":{"ha":1181,"x_min":0,"x_max":0,"o":"m 1001 -29 l 1111 93 l 1000 188 b 1099 486 1064 272 1099 376 l 1099 489 b 592 989 1099 763 890 989 b 82 486 293 989 82 760 l 82 483 b 589 -17 82 210 290 -17 b 885 75 703 -17 803 17 z m 592 140 b 261 486 399 140 261 297 l 261 489 b 589 832 261 678 396 832 b 919 486 782 832 919 675 l 919 483 b 869 301 919 415 903 353 l 701 454 l 592 329 l 758 188 b 592 140 713 158 656 140 z "},"R":{"ha":1004,"x_min":0,"x_max":0,"o":"m 125 0 l 296 0 l 296 339 l 510 339 l 749 0 l 950 0 l 688 368 b 919 663 824 407 919 503 l 919 665 b 839 875 919 750 890 822 b 558 972 776 936 681 972 l 125 972 z m 296 490 l 296 817 l 544 817 b 746 656 671 817 746 760 l 746 653 b 546 490 746 554 668 490 z "},"S":{"ha":889,"x_min":0,"x_max":0,"o":"m 465 -14 b 813 276 669 -14 813 94 l 813 279 b 500 564 813 440 706 514 b 269 717 314 608 269 642 l 269 719 b 428 835 269 783 328 835 b 692 735 517 835 604 800 l 783 864 b 431 986 685 943 572 986 b 99 704 238 986 99 871 l 99 701 b 422 411 99 522 215 461 b 642 263 603 369 642 332 l 642 260 b 469 138 642 186 575 138 b 163 264 349 138 256 183 l 60 142 b 465 -14 176 38 317 -14 z "},"T":{"ha":900,"x_min":0,"x_max":0,"o":"m 364 0 l 536 0 l 536 814 l 844 814 l 844 972 l 56 972 l 56 814 l 364 814 z "},"U":{"ha":1051,"x_min":0,"x_max":0,"o":"m 524 -15 b 942 421 778 -15 942 131 l 942 972 l 771 972 l 771 413 b 526 142 771 233 678 142 b 281 419 374 142 281 239 l 281 972 l 110 972 l 110 413 b 524 -15 110 131 271 -15 z "},"V":{"ha":1042,"x_min":0,"x_max":0,"o":"m 446 -7 l 596 -7 l 1000 972 l 815 972 l 524 225 l 231 972 l 42 972 z "},"W":{"ha":1550,"x_min":0,"x_max":0,"o":"m 389 -7 l 536 -7 l 775 692 l 1014 -7 l 1161 -7 l 1500 972 l 1321 972 l 1089 251 l 850 975 l 706 975 l 467 251 l 235 972 l 50 972 z "},"X":{"ha":1013,"x_min":0,"x_max":0,"o":"m 51 0 l 247 0 l 504 368 l 760 0 l 961 0 l 608 497 l 947 972 l 751 972 l 508 624 l 267 972 l 65 972 l 406 494 z "},"Y":{"ha":994,"x_min":0,"x_max":0,"o":"m 411 0 l 583 0 l 583 388 l 969 972 l 774 972 l 499 542 l 226 972 l 25 972 l 411 383 z "},"Z":{"ha":975,"x_min":0,"x_max":0,"o":"m 90 0 l 886 0 l 886 151 l 313 151 l 886 846 l 886 972 l 108 972 l 108 821 l 664 821 l 90 126 z "},"a":{"ha":815,"x_min":0,"x_max":0,"o":"m 721 0 l 721 435 b 399 744 721 631 615 744 b 119 683 279 744 200 719 l 165 549 b 375 594 232 576 293 594 b 556 438 492 594 556 539 l 556 424 b 353 454 499 442 442 454 b 56 214 182 454 56 376 l 56 211 b 317 -15 56 64 178 -15 b 554 90 428 -15 504 31 l 554 0 z m 558 265 b 364 111 558 174 475 111 b 222 219 285 111 222 150 l 222 222 b 390 336 222 293 285 336 b 558 307 456 336 515 324 z "},"b":{"ha":931,"x_min":0,"x_max":0,"o":"m 522 -15 b 864 365 697 -15 864 122 l 864 368 b 522 749 864 611 696 749 b 274 611 404 749 328 688 l 274 1014 l 106 1014 l 106 0 l 274 0 l 274 114 b 522 -15 325 46 401 -15 z m 483 131 b 269 365 369 131 269 224 l 269 368 b 483 603 269 508 369 603 b 693 368 597 603 693 510 l 693 365 b 483 131 693 221 599 131 z "},"c":{"ha":793,"x_min":0,"x_max":0,"o":"m 444 -17 b 744 121 588 -17 672 40 l 643 221 b 453 129 590 167 532 129 b 233 365 324 129 233 235 l 233 368 b 444 601 233 496 322 601 b 635 510 529 601 583 564 l 739 622 b 446 749 671 697 585 749 b 65 365 226 749 65 574 l 65 363 b 444 -17 65 154 226 -17 z "},"d":{"ha":931,"x_min":0,"x_max":0,"o":"m 408 -15 b 658 122 528 -15 604 46 l 658 0 l 826 0 l 826 1014 l 658 1014 l 658 619 b 408 749 606 688 529 749 b 68 368 233 749 68 611 l 68 365 b 408 -15 68 122 236 -15 z m 449 131 b 238 365 335 131 238 224 l 238 368 b 449 603 238 514 333 603 b 661 368 561 603 661 510 l 661 365 b 449 131 661 225 561 131 z "},"e":{"ha":839,"x_min":0,"x_max":0,"o":"m 442 -17 b 742 121 576 -17 672 38 l 643 208 b 444 121 585 151 526 121 b 233 307 336 121 251 188 l 772 307 b 775 354 774 324 775 339 b 424 749 775 565 657 749 b 65 367 214 749 65 576 l 65 364 b 442 -17 65 138 229 -17 z m 232 418 b 422 611 247 532 319 611 b 608 418 533 611 597 526 z "},"f":{"ha":522,"x_min":0,"x_max":0,"o":"m 143 0 l 311 0 l 311 589 l 503 589 l 503 728 l 308 728 l 308 768 b 406 879 308 844 342 879 b 504 861 442 879 471 872 l 504 1003 b 368 1022 467 1014 426 1022 b 203 964 296 1022 242 1003 b 143 782 164 925 143 864 l 143 729 l 50 729 l 50 589 l 143 589 z "},"g":{"ha":931,"x_min":0,"x_max":0,"o":"m 432 -225 b 733 -126 564 -225 667 -193 b 826 150 794 -65 826 26 l 826 733 l 658 733 l 658 624 b 401 749 601 692 525 749 b 68 404 231 749 68 621 l 68 401 b 401 58 68 186 229 58 b 660 193 522 58 599 114 l 660 136 b 428 -89 660 -11 578 -89 b 167 -11 328 -89 244 -60 l 104 -137 b 432 -225 199 -194 311 -225 z m 446 200 b 238 403 331 200 238 282 l 238 406 b 446 607 238 526 329 607 b 661 404 563 607 661 525 l 661 401 b 446 200 661 283 563 200 z "},"h":{"ha":861,"x_min":0,"x_max":0,"o":"m 106 0 l 274 0 l 274 414 b 439 596 274 528 342 596 b 596 417 539 596 596 531 l 596 0 l 764 0 l 764 467 b 503 749 764 638 668 749 b 274 619 389 749 321 689 l 274 1014 l 106 1014 z "},"i":{"ha":397,"x_min":0,"x_max":0,"o":"m 108 846 l 289 846 l 289 1006 l 108 1006 z m 115 0 l 283 0 l 283 733 l 115 733 z "},"j":{"ha":397,"x_min":0,"x_max":0,"o":"m 108 846 l 289 846 l 289 1006 l 108 1006 z m 69 -226 b 283 -10 207 -226 283 -158 l 283 733 l 115 733 l 115 0 b 36 -89 115 -64 83 -89 b -11 -85 21 -89 6 -87 l -11 -219 b 69 -226 15 -224 38 -226 z "},"k":{"ha":808,"x_min":0,"x_max":0,"o":"m 106 0 l 274 0 l 274 210 l 376 317 l 597 0 l 792 0 l 490 435 l 782 733 l 578 733 l 274 408 l 274 1014 l 106 1014 z "},"l":{"ha":397,"x_min":0,"x_max":0,"o":"m 115 0 l 283 0 l 283 1014 l 115 1014 z "},"m":{"ha":1319,"x_min":0,"x_max":0,"o":"m 106 0 l 274 0 l 274 413 b 431 596 274 526 338 596 b 579 418 524 596 579 532 l 579 0 l 747 0 l 747 414 b 904 596 747 532 813 596 b 1053 417 999 596 1053 533 l 1053 0 l 1221 0 l 1221 468 b 964 749 1221 647 1124 749 b 715 619 853 749 775 697 b 497 749 676 697 603 749 b 274 622 385 749 321 688 l 274 733 l 106 733 z "},"n":{"ha":861,"x_min":0,"x_max":0,"o":"m 106 0 l 274 0 l 274 414 b 439 596 274 528 342 596 b 596 417 539 596 596 531 l 596 0 l 764 0 l 764 467 b 503 749 764 638 668 749 b 274 619 389 749 321 689 l 274 733 l 106 733 z "},"o":{"ha":913,"x_min":0,"x_max":0,"o":"m 454 -17 b 847 365 681 -17 847 157 l 847 368 b 457 749 847 578 682 749 b 65 365 232 749 65 575 l 65 363 b 454 -17 65 154 231 -17 z m 457 129 b 233 365 326 129 233 238 l 233 368 b 454 601 233 496 319 601 b 679 365 586 601 679 494 l 679 363 b 457 129 679 236 593 129 z "},"p":{"ha":931,"x_min":0,"x_max":0,"o":"m 106 -222 l 274 -222 l 274 114 b 522 -15 325 46 401 -15 b 864 365 697 -15 864 122 l 864 368 b 522 749 864 611 696 749 b 274 611 404 749 328 688 l 274 733 l 106 733 z m 483 131 b 269 365 369 131 269 224 l 269 368 b 483 603 269 508 369 603 b 693 368 597 603 693 510 l 693 365 b 483 131 693 221 599 131 z "},"q":{"ha":931,"x_min":0,"x_max":0,"o":"m 658 -222 l 826 -222 l 826 733 l 658 733 l 658 619 b 408 749 606 688 529 749 b 68 368 233 749 68 611 l 68 365 b 408 -15 68 122 236 -15 b 658 122 528 -15 604 46 z m 449 131 b 238 365 335 131 238 224 l 238 368 b 449 603 238 514 333 603 b 661 368 561 603 661 510 l 661 365 b 449 131 661 225 561 131 z "},"r":{"ha":574,"x_min":0,"x_max":0,"o":"m 106 0 l 274 0 l 274 279 b 524 569 274 474 376 569 l 533 569 l 533 747 b 274 568 404 753 319 678 l 274 733 l 106 733 z "},"s":{"ha":694,"x_min":0,"x_max":0,"o":"m 357 -14 b 629 217 510 -14 629 63 l 629 219 b 401 433 629 351 508 400 b 236 536 315 461 236 483 l 236 539 b 339 613 236 582 274 613 b 546 543 400 613 475 586 l 613 663 b 343 746 535 714 435 746 b 82 522 197 746 82 661 l 82 519 b 311 304 82 379 203 335 b 475 201 397 278 475 258 l 475 199 b 361 119 475 150 433 119 b 121 210 286 119 200 150 l 46 96 b 357 -14 138 24 253 -14 z "},"t":{"ha":569,"x_min":0,"x_max":0,"o":"m 351 -12 b 503 25 414 -12 461 1 l 503 163 b 399 138 469 146 436 138 b 308 229 342 138 308 164 l 308 589 l 506 589 l 506 733 l 308 733 l 308 935 l 140 935 l 140 733 l 47 733 l 47 589 l 140 589 l 140 203 b 351 -12 140 42 228 -12 z "},"u":{"ha":861,"x_min":0,"x_max":0,"o":"m 358 -15 b 588 114 472 -15 540 44 l 588 0 l 756 0 l 756 733 l 588 733 l 588 319 b 422 138 588 206 519 138 b 265 317 322 138 265 203 l 265 733 l 97 733 l 97 267 b 358 -15 97 96 193 -15 z "},"v":{"ha":826,"x_min":0,"x_max":0,"o":"m 338 -6 l 489 -6 l 789 733 l 613 733 l 414 194 l 217 733 l 36 733 z "},"w":{"ha":1196,"x_min":0,"x_max":0,"o":"m 282 -6 l 432 -6 l 597 496 l 761 -6 l 911 -6 l 1151 733 l 983 733 l 833 231 l 669 736 l 526 736 l 364 231 l 217 733 l 44 733 z "},"x":{"ha":806,"x_min":0,"x_max":0,"o":"m 42 0 l 221 0 l 400 257 l 581 0 l 764 0 l 493 376 l 753 733 l 574 733 l 404 492 l 235 733 l 51 733 l 311 372 z "},"y":{"ha":828,"x_min":0,"x_max":0,"o":"m 256 -226 b 497 -21 374 -226 439 -171 l 789 733 l 614 733 l 424 189 l 215 733 l 36 733 l 342 0 b 238 -85 314 -64 285 -85 b 139 -57 203 -85 169 -74 l 82 -182 b 256 -226 133 -210 185 -226 z "},"z":{"ha":778,"x_min":0,"x_max":0,"o":"m 72 0 l 710 0 l 710 138 l 286 138 l 710 618 l 710 733 l 88 733 l 88 596 l 496 596 l 72 115 z "},"Á":{"ha":1097,"x_min":0,"x_max":0,"o":"m 42 0 l 217 0 l 317 235 l 776 235 l 875 0 l 1056 0 l 628 979 l 469 979 z m 379 386 l 546 775 l 714 386 z m 479 1067 l 610 1067 l 788 1201 l 635 1268 z "},"á":{"ha":815,"x_min":0,"x_max":0,"o":"m 721 0 l 721 435 b 399 744 721 631 615 744 b 119 683 279 744 200 719 l 165 549 b 375 594 232 576 293 594 b 556 438 492 594 556 539 l 556 424 b 353 454 499 442 442 454 b 56 214 182 454 56 376 l 56 211 b 317 -15 56 64 178 -15 b 554 90 428 -15 504 31 l 554 0 z m 558 265 b 364 111 558 174 475 111 b 222 219 285 111 222 150 l 222 222 b 390 336 222 293 285 336 b 558 307 456 336 515 324 z m 342 826 l 468 826 l 639 986 l 486 1054 z "},"Ă":{"ha":1097,"x_min":0,"x_max":0,"o":"m 42 0 l 217 0 l 317 235 l 776 235 l 875 0 l 1056 0 l 628 979 l 469 979 z m 379 386 l 546 775 l 714 386 z m 549 1064 b 789 1250 682 1064 778 1131 l 669 1250 b 549 1181 653 1207 618 1181 b 428 1250 479 1181 444 1207 l 308 1250 b 549 1064 319 1131 415 1064 z "},"ă":{"ha":815,"x_min":0,"x_max":0,"o":"m 721 0 l 721 435 b 399 744 721 631 615 744 b 119 683 279 744 200 719 l 165 549 b 375 594 232 576 293 594 b 556 438 492 594 556 539 l 556 424 b 353 454 499 442 442 454 b 56 214 182 454 56 376 l 56 211 b 317 -15 56 64 178 -15 b 554 90 428 -15 504 31 l 554 0 z m 558 265 b 364 111 558 174 475 111 b 222 219 285 111 222 150 l 222 222 b 390 336 222 293 285 336 b 558 307 456 336 515 324 z m 408 824 b 647 1025 542 824 636 897 l 531 1025 b 408 940 514 975 479 940 b 286 1025 338 940 303 975 l 171 1025 b 408 824 181 897 275 824 z "},"Â":{"ha":1097,"x_min":0,"x_max":0,"o":"m 42 0 l 217 0 l 317 235 l 776 235 l 875 0 l 1056 0 l 628 979 l 469 979 z m 379 386 l 546 775 l 714 386 z m 301 1061 l 440 1061 l 547 1142 l 654 1061 l 796 1061 l 628 1249 l 469 1249 z "},"â":{"ha":815,"x_min":0,"x_max":0,"o":"m 721 0 l 721 435 b 399 744 721 631 615 744 b 119 683 279 744 200 719 l 165 549 b 375 594 232 576 293 594 b 556 438 492 594 556 539 l 556 424 b 353 454 499 442 442 454 b 56 214 182 454 56 376 l 56 211 b 317 -15 56 64 178 -15 b 554 90 428 -15 504 31 l 554 0 z m 558 265 b 364 111 558 174 475 111 b 222 219 285 111 222 150 l 222 222 b 390 336 222 293 285 336 b 558 307 456 336 515 324 z m 169 826 l 300 826 l 407 919 l 515 826 l 649 826 l 486 1031 l 331 1031 z "},"Ä":{"ha":1097,"x_min":0,"x_max":0,"o":"m 42 0 l 217 0 l 317 235 l 776 235 l 875 0 l 1056 0 l 628 979 l 469 979 z m 379 386 l 546 775 l 714 386 z m 606 1067 l 778 1067 l 778 1222 l 606 1222 z m 319 1067 l 493 1067 l 493 1222 l 319 1222 z "},"ä":{"ha":815,"x_min":0,"x_max":0,"o":"m 721 0 l 721 435 b 399 744 721 631 615 744 b 119 683 279 744 200 719 l 165 549 b 375 594 232 576 293 594 b 556 438 492 594 556 539 l 556 424 b 353 454 499 442 442 454 b 56 214 182 454 56 376 l 56 211 b 317 -15 56 64 178 -15 b 554 90 428 -15 504 31 l 554 0 z m 558 265 b 364 111 558 174 475 111 b 222 219 285 111 222 150 l 222 222 b 390 336 222 293 285 336 b 558 307 456 336 515 324 z m 458 826 l 629 826 l 629 992 l 458 992 z m 188 826 l 358 826 l 358 992 l 188 992 z "},"Æ":{"ha":1451,"x_min":0,"x_max":0,"o":"m 17 0 l 193 0 l 322 235 l 676 235 l 676 0 l 1374 0 l 1374 153 l 847 153 l 847 414 l 1304 414 l 1304 567 l 847 567 l 847 819 l 1367 819 l 1367 972 l 560 972 z m 404 386 l 649 824 l 676 824 l 676 386 z "},"æ":{"ha":1322,"x_min":0,"x_max":0,"o":"m 333 -15 b 640 108 457 -15 558 40 b 924 -17 707 31 810 -17 b 1225 121 1060 -17 1154 38 l 1126 208 b 926 121 1068 151 1010 121 b 717 307 819 121 736 188 l 1256 307 b 1257 354 1257 324 1257 339 b 910 749 1257 565 1139 749 b 653 624 801 749 711 700 b 396 744 608 701 515 744 b 119 683 279 744 200 719 l 165 549 b 372 594 232 576 293 594 b 551 438 492 594 551 542 l 551 424 b 350 454 494 442 442 454 b 56 214 182 454 56 376 l 56 211 b 333 -15 56 64 181 -15 z m 714 418 b 906 611 729 532 801 611 b 1092 418 1017 611 1081 526 z m 361 111 b 222 219 283 111 222 150 l 222 222 b 388 336 222 293 285 336 b 551 311 456 336 508 326 b 578 206 556 272 565 238 b 361 111 514 146 442 111 z "},"Ǽ":{"ha":1451,"x_min":0,"x_max":0,"o":"m 794 1053 l 925 1053 l 1103 1188 l 950 1254 z m 17 0 l 193 0 l 322 235 l 676 235 l 676 0 l 1374 0 l 1374 153 l 847 153 l 847 414 l 1304 414 l 1304 567 l 847 567 l 847 819 l 1367 819 l 1367 972 l 560 972 z m 404 386 l 649 824 l 676 824 l 676 386 z "},"ǽ":{"ha":1322,"x_min":0,"x_max":0,"o":"m 589 826 l 715 826 l 886 986 l 733 1054 z m 333 -15 b 640 108 457 -15 558 40 b 924 -17 707 31 810 -17 b 1225 121 1060 -17 1154 38 l 1126 208 b 926 121 1068 151 1010 121 b 717 307 819 121 736 188 l 1256 307 b 1257 354 1257 324 1257 339 b 910 749 1257 565 1139 749 b 653 624 801 749 711 700 b 396 744 608 701 515 744 b 119 683 279 744 200 719 l 165 549 b 372 594 232 576 293 594 b 551 438 492 594 551 542 l 551 424 b 350 454 494 442 442 454 b 56 214 182 454 56 376 l 56 211 b 333 -15 56 64 181 -15 z m 714 418 b 906 611 729 532 801 611 b 1092 418 1017 611 1081 526 z m 361 111 b 222 219 283 111 222 150 l 222 222 b 388 336 222 293 285 336 b 551 311 456 336 508 326 b 578 206 556 272 565 238 b 361 111 514 146 442 111 z "},"À":{"ha":1097,"x_min":0,"x_max":0,"o":"m 42 0 l 217 0 l 317 235 l 776 235 l 875 0 l 1056 0 l 628 979 l 469 979 z m 379 386 l 546 775 l 714 386 z m 460 1268 l 308 1201 l 485 1067 l 617 1067 z "},"à":{"ha":815,"x_min":0,"x_max":0,"o":"m 721 0 l 721 435 b 399 744 721 631 615 744 b 119 683 279 744 200 719 l 165 549 b 375 594 232 576 293 594 b 556 438 492 594 556 539 l 556 424 b 353 454 499 442 442 454 b 56 214 182 454 56 376 l 56 211 b 317 -15 56 64 178 -15 b 554 90 428 -15 504 31 l 554 0 z m 558 265 b 364 111 558 174 475 111 b 222 219 285 111 222 150 l 222 222 b 390 336 222 293 285 336 b 558 307 456 336 515 324 z m 349 826 l 475 826 l 331 1054 l 178 986 z "},"Ā":{"ha":1097,"x_min":0,"x_max":0,"o":"m 42 0 l 217 0 l 317 235 l 776 235 l 875 0 l 1056 0 l 628 979 l 469 979 z m 379 386 l 546 775 l 714 386 z m 300 1082 l 799 1082 l 799 1207 l 300 1207 z "},"ā":{"ha":815,"x_min":0,"x_max":0,"o":"m 721 0 l 721 435 b 399 744 721 631 615 744 b 119 683 279 744 200 719 l 165 549 b 375 594 232 576 293 594 b 556 438 492 594 556 539 l 556 424 b 353 454 499 442 442 454 b 56 214 182 454 56 376 l 56 211 b 317 -15 56 64 178 -15 b 554 90 428 -15 504 31 l 554 0 z m 558 265 b 364 111 558 174 475 111 b 222 219 285 111 222 150 l 222 222 b 390 336 222 293 285 336 b 558 307 456 336 515 324 z m 172 842 l 644 842 l 644 964 l 172 964 z "},"Ą":{"ha":1097,"x_min":0,"x_max":0,"o":"m 1067 -228 l 1067 -147 b 967 -87 1000 -147 967 -128 b 1013 0 967 -61 979 -33 l 1056 0 l 628 979 l 469 979 l 42 0 l 217 0 l 317 235 l 776 235 l 875 0 l 894 0 b 839 -114 860 -36 839 -72 b 1067 -228 839 -187 919 -242 z m 379 386 l 546 775 l 714 386 z "},"ą":{"ha":815,"x_min":0,"x_max":0,"o":"m 729 -228 l 729 -147 b 629 -87 663 -147 629 -128 b 675 0 629 -61 642 -33 l 721 0 l 721 435 b 399 744 721 631 615 744 b 119 683 279 744 200 719 l 165 549 b 375 594 232 576 293 594 b 556 438 492 594 556 539 l 556 424 b 353 454 499 442 442 454 b 56 214 182 454 56 376 l 56 211 b 317 -15 56 64 178 -15 b 554 90 428 -15 504 31 l 554 0 l 557 0 b 501 -114 522 -36 501 -72 b 729 -228 501 -187 582 -242 z m 558 265 b 364 111 558 174 475 111 b 222 219 285 111 222 150 l 222 222 b 390 336 222 293 285 336 b 558 307 456 336 515 324 z "},"Å":{"ha":1097,"x_min":0,"x_max":0,"o":"m 383 1035 b 443 921 383 988 407 947 l 42 0 l 217 0 l 317 235 l 776 235 l 875 0 l 1056 0 l 653 921 b 714 1035 690 947 714 988 b 549 1182 714 1121 638 1182 b 383 1035 460 1182 383 1121 z m 379 386 l 546 775 l 714 386 z m 460 1035 b 549 1115 460 1081 496 1115 b 639 1035 601 1115 639 1081 b 549 954 639 990 601 954 b 460 1035 496 954 460 990 z "},"å":{"ha":815,"x_min":0,"x_max":0,"o":"m 721 0 l 721 435 b 399 744 721 631 615 744 b 119 683 279 744 200 719 l 165 549 b 375 594 232 576 293 594 b 556 438 492 594 556 539 l 556 424 b 353 454 499 442 442 454 b 56 214 182 454 56 376 l 56 211 b 317 -15 56 64 178 -15 b 554 90 428 -15 504 31 l 554 0 z m 558 265 b 364 111 558 174 475 111 b 222 219 285 111 222 150 l 222 222 b 390 336 222 293 285 336 b 558 307 456 336 515 324 z m 247 979 b 408 824 247 893 319 824 b 569 979 497 824 569 893 b 408 1135 569 1065 497 1135 b 247 979 319 1135 247 1065 z m 315 979 b 408 1072 315 1031 357 1072 b 501 979 460 1072 501 1031 b 408 886 501 928 460 886 b 315 979 357 886 315 928 z "},"Ǻ":{"ha":1097,"x_min":0,"x_max":0,"o":"m 383 1035 b 443 921 383 988 407 947 l 42 0 l 217 0 l 317 235 l 776 235 l 875 0 l 1056 0 l 653 921 b 714 1035 690 947 714 988 b 549 1182 714 1121 638 1182 b 383 1035 460 1182 383 1121 z m 379 386 l 546 775 l 714 386 z m 472 1221 l 604 1221 l 786 1332 l 635 1400 z m 460 1035 b 549 1115 460 1081 496 1115 b 639 1035 601 1115 639 1081 b 549 954 639 990 601 954 b 460 1035 496 954 460 990 z "},"ǻ":{"ha":815,"x_min":0,"x_max":0,"o":"m 340 1179 l 468 1179 l 643 1303 l 493 1371 z m 721 0 l 721 435 b 399 744 721 631 615 744 b 119 683 279 744 200 719 l 165 549 b 375 594 232 576 293 594 b 556 438 492 594 556 539 l 556 424 b 353 454 499 442 442 454 b 56 214 182 454 56 376 l 56 211 b 317 -15 56 64 178 -15 b 554 90 428 -15 504 31 l 554 0 z m 558 265 b 364 111 558 174 475 111 b 222 219 285 111 222 150 l 222 222 b 390 336 222 293 285 336 b 558 307 456 336 515 324 z m 247 979 b 408 824 247 893 319 824 b 569 979 497 824 569 893 b 408 1135 569 1065 497 1135 b 247 979 319 1135 247 1065 z m 315 979 b 408 1072 315 1031 357 1072 b 501 979 460 1072 501 1031 b 408 886 501 928 460 886 b 315 979 357 886 315 928 z "},"Ã":{"ha":1097,"x_min":0,"x_max":0,"o":"m 42 0 l 217 0 l 317 235 l 776 235 l 875 0 l 1056 0 l 628 979 l 469 979 z m 379 386 l 546 775 l 714 386 z m 382 1053 b 460 1121 403 1099 419 1121 b 664 1067 508 1121 588 1067 b 819 1238 747 1067 789 1129 l 725 1265 b 649 1199 706 1221 689 1199 b 444 1253 600 1199 521 1253 b 289 1082 360 1253 318 1190 z "},"ã":{"ha":815,"x_min":0,"x_max":0,"o":"m 721 0 l 721 435 b 399 744 721 631 615 744 b 119 683 279 744 200 719 l 165 549 b 375 594 232 576 293 594 b 556 438 492 594 556 539 l 556 424 b 353 454 499 442 442 454 b 56 214 182 454 56 376 l 56 211 b 317 -15 56 64 178 -15 b 554 90 428 -15 504 31 l 554 0 z m 558 265 b 364 111 558 174 475 111 b 222 219 285 111 222 150 l 222 222 b 390 336 222 293 285 336 b 558 307 456 336 515 324 z m 246 813 b 322 882 267 860 282 882 b 522 826 372 882 446 826 b 678 1000 607 826 647 888 l 585 1028 b 508 958 564 981 549 958 b 308 1014 458 958 385 1014 b 153 842 224 1014 183 953 z "},"Ć":{"ha":1025,"x_min":0,"x_max":0,"o":"m 576 -17 b 971 156 758 -17 869 50 l 861 267 b 582 140 778 189 701 140 b 261 486 396 140 261 296 l 261 489 b 582 832 261 679 396 832 b 854 711 693 832 776 783 l 964 838 b 583 989 871 926 763 989 b 82 486 289 989 82 763 l 82 483 b 576 -17 82 204 293 -17 z m 499 1067 l 629 1067 l 807 1201 l 654 1268 z "},"ć":{"ha":793,"x_min":0,"x_max":0,"o":"m 371 826 l 497 826 l 668 986 l 515 1054 z m 444 -17 b 744 121 588 -17 672 40 l 643 221 b 453 129 590 167 532 129 b 233 365 324 129 233 235 l 233 368 b 444 601 233 496 322 601 b 635 510 529 601 583 564 l 739 622 b 446 749 671 697 585 749 b 65 365 226 749 65 574 l 65 363 b 444 -17 65 154 226 -17 z "},"Č":{"ha":1025,"x_min":0,"x_max":0,"o":"m 576 -17 b 971 156 758 -17 869 50 l 861 267 b 582 140 778 189 701 140 b 261 486 396 140 261 296 l 261 489 b 582 832 261 679 396 832 b 854 711 693 832 776 783 l 964 838 b 583 989 871 926 763 989 b 82 486 289 989 82 763 l 82 483 b 576 -17 82 204 293 -17 z m 814 1254 l 675 1254 l 568 1175 l 461 1254 l 319 1254 l 488 1067 l 646 1067 z "},"č":{"ha":793,"x_min":0,"x_max":0,"o":"m 678 1031 l 547 1031 l 439 938 l 332 1031 l 199 1031 l 360 826 l 515 826 z m 444 -17 b 744 121 588 -17 672 40 l 643 221 b 453 129 590 167 532 129 b 233 365 324 129 233 235 l 233 368 b 444 601 233 496 322 601 b 635 510 529 601 583 564 l 739 622 b 446 749 671 697 585 749 b 65 365 226 749 65 574 l 65 363 b 444 -17 65 154 226 -17 z "},"Ç":{"ha":1025,"x_min":0,"x_max":0,"o":"m 515 -231 l 607 -15 b 971 156 771 -8 875 56 l 861 267 b 582 140 778 189 701 140 b 261 486 396 140 261 296 l 261 489 b 582 832 261 679 396 832 b 854 711 693 832 776 783 l 964 838 b 583 989 871 926 763 989 b 82 486 289 989 82 763 l 82 483 b 476 -7 82 238 244 36 l 368 -168 z "},"ç":{"ha":793,"x_min":0,"x_max":0,"o":"m 383 -231 l 475 -15 b 744 121 600 -8 678 46 l 643 221 b 453 129 590 167 532 129 b 233 365 324 129 233 235 l 233 368 b 444 601 233 496 322 601 b 635 510 529 601 583 564 l 739 622 b 446 749 671 697 585 749 b 65 365 226 749 65 574 l 65 363 b 347 -4 65 186 179 38 l 236 -168 z "},"Ċ":{"ha":1025,"x_min":0,"x_max":0,"o":"m 478 1067 l 656 1067 l 656 1222 l 478 1222 z m 576 -17 b 971 156 758 -17 869 50 l 861 267 b 582 140 778 189 701 140 b 261 486 396 140 261 296 l 261 489 b 582 832 261 679 396 832 b 854 711 693 832 776 783 l 964 838 b 583 989 871 926 763 989 b 82 486 289 989 82 763 l 82 483 b 576 -17 82 204 293 -17 z "},"ċ":{"ha":793,"x_min":0,"x_max":0,"o":"m 444 -17 b 744 121 588 -17 672 40 l 643 221 b 453 129 590 167 532 129 b 233 365 324 129 233 235 l 233 368 b 444 601 233 496 322 601 b 635 510 529 601 583 564 l 739 622 b 446 749 671 697 585 749 b 65 365 226 749 65 574 l 65 363 b 444 -17 65 154 226 -17 z m 350 826 l 525 826 l 525 992 l 350 992 z "},"Ď":{"ha":1086,"x_min":0,"x_max":0,"o":"m 771 1240 l 632 1240 l 525 1161 l 418 1240 l 276 1240 l 444 1053 l 603 1053 z m 125 0 l 488 0 b 1004 486 793 0 1004 213 l 1004 489 b 488 972 1004 763 793 972 l 125 972 z m 296 156 l 296 817 l 488 817 b 825 486 692 817 825 676 l 825 483 b 488 156 825 293 692 156 z "},"ď":{"ha":932,"x_min":0,"x_max":0,"o":"m 904 750 l 974 750 l 1051 1010 l 1051 1014 l 921 1014 z m 408 -15 b 658 122 528 -15 604 46 l 658 0 l 826 0 l 826 1014 l 658 1014 l 658 619 b 408 749 606 688 529 749 b 68 368 233 749 68 611 l 68 365 b 408 -15 68 122 236 -15 z m 449 131 b 238 365 335 131 238 224 l 238 368 b 449 603 238 514 333 603 b 661 368 561 603 661 510 l 661 365 b 449 131 661 225 561 131 z "},"Đ":{"ha":1128,"x_min":0,"x_max":0,"o":"m 167 0 l 529 0 b 1046 486 835 0 1046 213 l 1046 489 b 529 972 1046 763 835 972 l 167 972 l 167 565 l 63 565 l 63 413 l 167 413 z m 338 156 l 338 413 l 581 413 l 581 565 l 338 565 l 338 817 l 529 817 b 867 486 733 817 867 676 l 867 483 b 529 156 867 293 733 156 z "},"đ":{"ha":932,"x_min":0,"x_max":0,"o":"m 431 835 l 658 835 l 658 619 b 408 749 606 688 529 749 b 68 368 233 749 68 611 l 68 365 b 408 -15 68 122 236 -15 b 658 122 528 -15 604 46 l 658 0 l 826 0 l 826 835 l 922 835 l 922 936 l 826 936 l 826 1014 l 658 1014 l 658 936 l 431 936 z m 449 131 b 238 365 335 131 238 224 l 238 368 b 449 603 238 514 333 603 b 661 368 561 603 661 510 l 661 365 b 449 131 661 225 561 131 z "},"É":{"ha":931,"x_min":0,"x_max":0,"o":"m 419 1053 l 550 1053 l 728 1188 l 575 1254 z m 125 0 l 853 0 l 853 153 l 296 153 l 296 414 l 783 414 l 783 567 l 296 567 l 296 819 l 846 819 l 846 972 l 125 972 z "},"é":{"ha":839,"x_min":0,"x_max":0,"o":"m 354 826 l 481 826 l 651 986 l 499 1054 z m 442 -17 b 742 121 576 -17 672 38 l 643 208 b 444 121 585 151 526 121 b 233 307 336 121 251 188 l 772 307 b 775 354 774 324 775 339 b 424 749 775 565 657 749 b 65 367 214 749 65 576 l 65 364 b 442 -17 65 138 229 -17 z m 232 418 b 422 611 247 532 319 611 b 608 418 533 611 597 526 z "},"Ĕ":{"ha":931,"x_min":0,"x_max":0,"o":"m 488 1050 b 728 1236 621 1050 717 1117 l 608 1236 b 488 1167 592 1193 557 1167 b 367 1236 418 1167 383 1193 l 247 1236 b 488 1050 258 1117 354 1050 z m 125 0 l 853 0 l 853 153 l 296 153 l 296 414 l 783 414 l 783 567 l 296 567 l 296 819 l 846 819 l 846 972 l 125 972 z "},"ĕ":{"ha":839,"x_min":0,"x_max":0,"o":"m 442 -17 b 742 121 576 -17 672 38 l 643 208 b 444 121 585 151 526 121 b 233 307 336 121 251 188 l 772 307 b 775 354 774 324 775 339 b 424 749 775 565 657 749 b 65 367 214 749 65 576 l 65 364 b 442 -17 65 138 229 -17 z m 232 418 b 422 611 247 532 319 611 b 608 418 533 611 597 526 z m 421 824 b 660 1025 554 824 649 897 l 543 1025 b 421 940 526 975 492 940 b 299 1025 350 940 315 975 l 183 1025 b 421 824 193 897 288 824 z "},"Ě":{"ha":931,"x_min":0,"x_max":0,"o":"m 735 1240 l 596 1240 l 489 1161 l 382 1240 l 240 1240 l 408 1053 l 567 1053 z m 125 0 l 853 0 l 853 153 l 296 153 l 296 414 l 783 414 l 783 567 l 296 567 l 296 819 l 846 819 l 846 972 l 125 972 z "},"ě":{"ha":839,"x_min":0,"x_max":0,"o":"m 661 1031 l 531 1031 l 422 938 l 315 1031 l 182 1031 l 343 826 l 499 826 z m 442 -17 b 742 121 576 -17 672 38 l 643 208 b 444 121 585 151 526 121 b 233 307 336 121 251 188 l 772 307 b 775 354 774 324 775 339 b 424 749 775 565 657 749 b 65 367 214 749 65 576 l 65 364 b 442 -17 65 138 229 -17 z m 232 418 b 422 611 247 532 319 611 b 608 418 533 611 597 526 z "},"Ê":{"ha":931,"x_min":0,"x_max":0,"o":"m 125 0 l 853 0 l 853 153 l 296 153 l 296 414 l 783 414 l 783 567 l 296 567 l 296 819 l 846 819 l 846 972 l 125 972 z m 240 1053 l 379 1053 l 486 1133 l 593 1053 l 735 1053 l 567 1240 l 408 1240 z "},"ê":{"ha":839,"x_min":0,"x_max":0,"o":"m 182 826 l 313 826 l 419 919 l 528 826 l 661 826 l 499 1031 l 343 1031 z m 442 -17 b 742 121 576 -17 672 38 l 643 208 b 444 121 585 151 526 121 b 233 307 336 121 251 188 l 772 307 b 775 354 774 324 775 339 b 424 749 775 565 657 749 b 65 367 214 749 65 576 l 65 364 b 442 -17 65 138 229 -17 z m 232 418 b 422 611 247 532 319 611 b 608 418 533 611 597 526 z "},"Ë":{"ha":931,"x_min":0,"x_max":0,"o":"m 544 1053 l 717 1053 l 717 1208 l 544 1208 z m 258 1053 l 432 1053 l 432 1208 l 258 1208 z m 125 0 l 853 0 l 853 153 l 296 153 l 296 414 l 783 414 l 783 567 l 296 567 l 296 819 l 846 819 l 846 972 l 125 972 z "},"ë":{"ha":839,"x_min":0,"x_max":0,"o":"m 471 826 l 642 826 l 642 992 l 471 992 z m 200 826 l 371 826 l 371 992 l 200 992 z m 442 -17 b 742 121 576 -17 672 38 l 643 208 b 444 121 585 151 526 121 b 233 307 336 121 251 188 l 772 307 b 775 354 774 324 775 339 b 424 749 775 565 657 749 b 65 367 214 749 65 576 l 65 364 b 442 -17 65 138 229 -17 z m 232 418 b 422 611 247 532 319 611 b 608 418 533 611 597 526 z "},"Ė":{"ha":931,"x_min":0,"x_max":0,"o":"m 399 1053 l 576 1053 l 576 1208 l 399 1208 z m 125 0 l 853 0 l 853 153 l 296 153 l 296 414 l 783 414 l 783 567 l 296 567 l 296 819 l 846 819 l 846 972 l 125 972 z "},"ė":{"ha":839,"x_min":0,"x_max":0,"o":"m 442 -17 b 742 121 576 -17 672 38 l 643 208 b 444 121 585 151 526 121 b 233 307 336 121 251 188 l 772 307 b 775 354 774 324 775 339 b 424 749 775 565 657 749 b 65 367 214 749 65 576 l 65 364 b 442 -17 65 138 229 -17 z m 232 418 b 422 611 247 532 319 611 b 608 418 533 611 597 526 z m 333 826 l 508 826 l 508 992 l 333 992 z "},"È":{"ha":931,"x_min":0,"x_max":0,"o":"m 400 1254 l 249 1188 l 425 1053 l 557 1053 z m 125 0 l 853 0 l 853 153 l 296 153 l 296 414 l 783 414 l 783 567 l 296 567 l 296 819 l 846 819 l 846 972 l 125 972 z "},"è":{"ha":839,"x_min":0,"x_max":0,"o":"m 442 -17 b 742 121 576 -17 672 38 l 643 208 b 444 121 585 151 526 121 b 233 307 336 121 251 188 l 772 307 b 775 354 774 324 775 339 b 424 749 775 565 657 749 b 65 367 214 749 65 576 l 65 364 b 442 -17 65 138 229 -17 z m 232 418 b 422 611 247 532 319 611 b 608 418 533 611 597 526 z m 361 826 l 488 826 l 343 1054 l 190 986 z "},"Ē":{"ha":931,"x_min":0,"x_max":0,"o":"m 239 1068 l 738 1068 l 738 1193 l 239 1193 z m 125 0 l 853 0 l 853 153 l 296 153 l 296 414 l 783 414 l 783 567 l 296 567 l 296 819 l 846 819 l 846 972 l 125 972 z "},"ē":{"ha":839,"x_min":0,"x_max":0,"o":"m 442 -17 b 742 121 576 -17 672 38 l 643 208 b 444 121 585 151 526 121 b 233 307 336 121 251 188 l 772 307 b 775 354 774 324 775 339 b 424 749 775 565 657 749 b 65 367 214 749 65 576 l 65 364 b 442 -17 65 138 229 -17 z m 232 418 b 422 611 247 532 319 611 b 608 418 533 611 597 526 z m 185 842 l 657 842 l 657 964 l 185 964 z "},"Ę":{"ha":931,"x_min":0,"x_max":0,"o":"m 125 0 l 681 0 b 625 -114 646 -36 625 -72 b 853 -228 625 -187 706 -242 l 853 -147 b 753 -87 786 -147 753 -128 b 799 0 753 -61 765 -33 l 853 0 l 853 153 l 296 153 l 296 414 l 783 414 l 783 567 l 296 567 l 296 819 l 846 819 l 846 972 l 125 972 z "},"ę":{"ha":839,"x_min":0,"x_max":0,"o":"m 232 418 b 422 611 247 532 319 611 b 608 418 533 611 597 526 z m 661 40 b 742 121 693 68 714 89 l 643 208 b 444 121 585 151 526 121 b 233 307 336 121 251 188 l 772 307 b 775 354 774 324 775 339 b 424 749 775 565 657 749 b 65 367 214 749 65 576 l 65 364 b 442 -17 65 138 229 -17 b 506 -11 463 -17 488 -14 b 458 -117 475 -47 458 -81 b 685 -228 458 -189 539 -242 l 685 -147 b 585 -81 618 -147 585 -128 b 661 40 585 -47 606 -10 z "},"Ð":{"ha":1128,"x_min":0,"x_max":0,"o":"m 167 0 l 529 0 b 1046 486 835 0 1046 213 l 1046 489 b 529 972 1046 763 835 972 l 167 972 l 167 565 l 63 565 l 63 413 l 167 413 z m 338 156 l 338 413 l 581 413 l 581 565 l 338 565 l 338 817 l 529 817 b 867 486 733 817 867 676 l 867 483 b 529 156 867 293 733 156 z "},"ð":{"ha":913,"x_min":0,"x_max":0,"o":"m 721 925 l 688 1017 l 529 968 l 475 1014 l 247 1014 b 369 919 289 985 329 953 l 253 883 l 286 790 l 454 842 b 601 663 517 782 568 719 b 399 732 544 703 486 732 b 65 375 217 732 65 579 l 65 372 b 453 -17 65 153 232 -17 b 846 399 696 -17 846 168 l 846 401 b 613 890 846 592 746 756 z m 457 131 b 233 363 326 131 233 236 l 233 365 b 451 594 233 493 317 594 b 679 364 586 594 679 492 l 679 361 b 457 131 679 233 592 131 z "},"Ğ":{"ha":1089,"x_min":0,"x_max":0,"o":"m 572 1064 b 813 1250 706 1064 801 1131 l 693 1250 b 572 1181 676 1207 642 1181 b 451 1250 503 1181 468 1207 l 332 1250 b 572 1064 343 1131 439 1064 z m 586 -17 b 992 135 758 -17 896 53 l 992 543 l 578 543 l 578 394 l 826 394 l 826 213 b 592 139 767 168 683 139 b 261 486 393 139 261 286 l 261 489 b 576 832 261 675 397 832 b 849 728 700 832 774 792 l 957 857 b 583 989 857 942 753 989 b 82 486 290 989 82 758 l 82 483 b 586 -17 82 200 282 -17 z "},"ğ":{"ha":932,"x_min":0,"x_max":0,"o":"m 432 -225 b 733 -126 564 -225 667 -193 b 826 150 794 -65 826 26 l 826 733 l 658 733 l 658 624 b 401 749 601 692 525 749 b 68 404 231 749 68 621 l 68 401 b 401 58 68 186 229 58 b 660 193 522 58 599 114 l 660 136 b 428 -89 660 -11 578 -89 b 167 -11 328 -89 244 -60 l 104 -137 b 432 -225 199 -194 311 -225 z m 446 200 b 238 403 331 200 238 282 l 238 406 b 446 607 238 526 329 607 b 661 404 563 607 661 525 l 661 401 b 446 200 661 283 563 200 z m 474 824 b 713 1025 607 824 701 897 l 596 1025 b 474 940 579 975 544 940 b 351 1025 403 940 368 975 l 236 1025 b 474 824 246 897 340 824 z "},"Ģ":{"ha":1089,"x_min":0,"x_max":0,"o":"m 478 -382 b 653 -212 592 -376 653 -326 l 653 -93 l 489 -93 l 489 -233 l 564 -233 b 467 -328 568 -287 536 -318 z m 586 -17 b 992 135 758 -17 896 53 l 992 543 l 578 543 l 578 394 l 826 394 l 826 213 b 592 139 767 168 683 139 b 261 486 393 139 261 286 l 261 489 b 576 832 261 675 397 832 b 849 728 700 832 774 792 l 957 857 b 583 989 857 942 753 989 b 82 486 290 989 82 758 l 82 483 b 586 -17 82 200 282 -17 z "},"ģ":{"ha":932,"x_min":0,"x_max":0,"o":"m 564 1115 b 389 946 450 1110 389 1060 l 389 826 l 553 826 l 553 967 l 478 967 b 575 1061 474 1021 506 1051 z m 432 -225 b 733 -126 564 -225 667 -193 b 826 150 794 -65 826 26 l 826 733 l 658 733 l 658 624 b 401 749 601 692 525 749 b 68 404 231 749 68 621 l 68 401 b 401 58 68 186 229 58 b 660 193 522 58 599 114 l 660 136 b 428 -89 660 -11 578 -89 b 167 -11 328 -89 244 -60 l 104 -137 b 432 -225 199 -194 311 -225 z m 446 200 b 238 403 331 200 238 282 l 238 406 b 446 607 238 526 329 607 b 661 404 563 607 661 525 l 661 401 b 446 200 661 283 563 200 z "},"Ġ":{"ha":1089,"x_min":0,"x_max":0,"o":"m 483 1067 l 661 1067 l 661 1222 l 483 1222 z m 586 -17 b 992 135 758 -17 896 53 l 992 543 l 578 543 l 578 394 l 826 394 l 826 213 b 592 139 767 168 683 139 b 261 486 393 139 261 286 l 261 489 b 576 832 261 675 397 832 b 849 728 700 832 774 792 l 957 857 b 583 989 857 942 753 989 b 82 486 290 989 82 758 l 82 483 b 586 -17 82 200 282 -17 z "},"ġ":{"ha":932,"x_min":0,"x_max":0,"o":"m 432 -225 b 733 -126 564 -225 667 -193 b 826 150 794 -65 826 26 l 826 733 l 658 733 l 658 624 b 401 749 601 692 525 749 b 68 404 231 749 68 621 l 68 401 b 401 58 68 186 229 58 b 660 193 522 58 599 114 l 660 136 b 428 -89 660 -11 578 -89 b 167 -11 328 -89 244 -60 l 104 -137 b 432 -225 199 -194 311 -225 z m 446 200 b 238 403 331 200 238 282 l 238 406 b 446 607 238 526 329 607 b 661 404 563 607 661 525 l 661 401 b 446 200 661 283 563 200 z m 386 826 l 561 826 l 561 992 l 386 992 z "},"Ħ":{"ha":1081,"x_min":0,"x_max":0,"o":"m 39 710 l 138 710 l 138 0 l 308 0 l 308 407 l 772 407 l 772 0 l 943 0 l 943 710 l 1043 710 l 1043 831 l 943 831 l 943 972 l 772 972 l 772 831 l 308 831 l 308 972 l 138 972 l 138 831 l 39 831 z m 308 565 l 308 713 l 772 713 l 772 565 z "},"ħ":{"ha":861,"x_min":0,"x_max":0,"o":"m 106 0 l 274 0 l 274 414 b 439 596 274 528 342 596 b 596 417 539 596 596 531 l 596 0 l 764 0 l 764 467 b 503 749 764 638 668 749 b 274 619 389 749 321 689 l 274 835 l 501 835 l 501 936 l 274 936 l 274 1014 l 106 1014 l 106 936 l 10 936 l 10 835 l 106 835 z "},"Í":{"ha":440,"x_min":0,"x_max":0,"o":"m 135 0 l 306 0 l 306 972 l 135 972 z m 153 1053 l 283 1053 l 461 1188 l 308 1254 z "},"í":{"ha":397,"x_min":0,"x_max":0,"o":"m 132 826 l 258 826 l 429 986 l 276 1054 z m 115 0 l 283 0 l 283 733 l 115 733 z "},"Ĭ":{"ha":440,"x_min":0,"x_max":0,"o":"m 135 0 l 306 0 l 306 972 l 135 972 z m 221 1050 b 461 1236 354 1050 450 1117 l 342 1236 b 221 1167 325 1193 290 1167 b 100 1236 151 1167 117 1193 l -19 1236 b 221 1050 -8 1117 88 1050 z "},"ĭ":{"ha":397,"x_min":0,"x_max":0,"o":"m 115 0 l 283 0 l 283 733 l 115 733 z m 199 824 b 438 1025 332 824 426 897 l 321 1025 b 199 940 304 975 269 940 b 76 1025 128 940 93 975 l -39 1025 b 199 824 -29 897 65 824 z "},"Î":{"ha":440,"x_min":0,"x_max":0,"o":"m 135 0 l 306 0 l 306 972 l 135 972 z m -26 1053 l 113 1053 l 219 1133 l 326 1053 l 468 1053 l 300 1240 l 142 1240 z "},"î":{"ha":397,"x_min":0,"x_max":0,"o":"m -40 826 l 90 826 l 197 919 l 306 826 l 439 826 l 276 1031 l 121 1031 z m 115 0 l 283 0 l 283 733 l 115 733 z "},"Ï":{"ha":440,"x_min":0,"x_max":0,"o":"m 135 0 l 306 0 l 306 972 l 135 972 z m 278 1053 l 450 1053 l 450 1208 l 278 1208 z m -8 1053 l 165 1053 l 165 1208 l -8 1208 z "},"ï":{"ha":397,"x_min":0,"x_max":0,"o":"m 249 826 l 419 826 l 419 992 l 249 992 z m -22 826 l 149 826 l 149 992 l -22 992 z m 115 0 l 283 0 l 283 733 l 115 733 z "},"İ":{"ha":440,"x_min":0,"x_max":0,"o":"m 135 0 l 306 0 l 306 972 l 135 972 z m 132 1053 l 310 1053 l 310 1208 l 132 1208 z "},"ı":{"ha":397,"x_min":0,"x_max":0,"o":"m 115 0 l 283 0 l 283 733 l 115 733 z "},"Ì":{"ha":440,"x_min":0,"x_max":0,"o":"m 135 0 l 306 0 l 306 972 l 135 972 z m 133 1254 l -18 1188 l 158 1053 l 290 1053 z "},"ì":{"ha":397,"x_min":0,"x_max":0,"o":"m 115 0 l 283 0 l 283 733 l 115 733 z m 139 826 l 265 826 l 121 1054 l -32 986 z "},"Ī":{"ha":440,"x_min":0,"x_max":0,"o":"m 135 0 l 306 0 l 306 972 l 135 972 z m -28 1068 l 471 1068 l 471 1193 l -28 1193 z "},"ī":{"ha":397,"x_min":0,"x_max":0,"o":"m 115 0 l 283 0 l 283 733 l 115 733 z m -37 842 l 435 842 l 435 964 l -37 964 z "},"Į":{"ha":440,"x_min":0,"x_max":0,"o":"m 135 0 l 157 0 b 101 -114 122 -36 101 -72 b 329 -228 101 -187 182 -242 l 329 -147 b 229 -87 263 -147 229 -128 b 275 0 229 -61 242 -33 l 306 0 l 306 972 l 135 972 z "},"į":{"ha":397,"x_min":0,"x_max":0,"o":"m 115 0 l 136 0 b 81 -114 101 -36 81 -72 b 308 -228 81 -187 161 -242 l 308 -147 b 208 -87 242 -147 208 -128 b 254 0 208 -61 221 -33 l 283 0 l 283 733 l 115 733 z m 108 846 l 289 846 l 289 1006 l 108 1006 z "},"Ķ":{"ha":1008,"x_min":0,"x_max":0,"o":"m 413 -371 b 588 -201 526 -365 588 -315 l 588 -82 l 424 -82 l 424 -222 l 499 -222 b 401 -317 503 -276 471 -307 z m 125 0 l 296 0 l 296 282 l 447 438 l 779 0 l 986 0 l 564 554 l 968 972 l 758 972 l 296 483 l 296 972 l 125 972 z "},"ķ":{"ha":808,"x_min":0,"x_max":0,"o":"m 328 -378 b 503 -208 442 -372 503 -322 l 503 -89 l 339 -89 l 339 -229 l 414 -229 b 317 -324 418 -283 386 -314 z m 106 0 l 274 0 l 274 210 l 376 317 l 597 0 l 792 0 l 490 435 l 782 733 l 578 733 l 274 408 l 274 1014 l 106 1014 z "},"Ĺ":{"ha":860,"x_min":0,"x_max":0,"o":"m 165 1053 l 296 1053 l 474 1188 l 321 1254 z m 125 0 l 807 0 l 807 156 l 296 156 l 296 972 l 125 972 z "},"ĺ":{"ha":397,"x_min":0,"x_max":0,"o":"m 135 1076 l 265 1076 l 443 1211 l 290 1278 z m 115 0 l 283 0 l 283 1014 l 115 1014 z "},"Ľ":{"ha":860,"x_min":0,"x_max":0,"o":"m 406 708 l 475 708 l 553 968 l 553 972 l 422 972 z m 125 0 l 807 0 l 807 156 l 296 156 l 296 972 l 125 972 z "},"ľ":{"ha":397,"x_min":0,"x_max":0,"o":"m 361 750 l 431 750 l 508 1010 l 508 1014 l 378 1014 z m 115 0 l 283 0 l 283 1014 l 115 1014 z "},"Ļ":{"ha":860,"x_min":0,"x_max":0,"o":"m 369 -378 b 544 -208 483 -372 544 -322 l 544 -89 l 381 -89 l 381 -229 l 456 -229 b 358 -324 460 -283 428 -314 z m 125 0 l 807 0 l 807 156 l 296 156 l 296 972 l 125 972 z "},"ļ":{"ha":397,"x_min":0,"x_max":0,"o":"m 106 -378 b 281 -208 219 -372 281 -322 l 281 -89 l 117 -89 l 117 -229 l 192 -229 b 94 -324 196 -283 164 -314 z m 115 0 l 283 0 l 283 1014 l 115 1014 z "},"Ŀ":{"ha":860,"x_min":0,"x_max":0,"o":"m 575 440 l 744 440 l 744 606 l 575 606 z m 125 0 l 807 0 l 807 156 l 296 156 l 296 972 l 125 972 z "},"ŀ":{"ha":510,"x_min":0,"x_max":0,"o":"m 381 443 l 528 443 l 528 599 l 381 599 z m 115 0 l 283 0 l 283 1014 l 115 1014 z "},"Ł":{"ha":901,"x_min":0,"x_max":0,"o":"m 560 536 l 560 699 l 338 599 l 338 972 l 167 972 l 167 521 l 63 475 l 63 313 l 167 358 l 167 0 l 849 0 l 849 156 l 338 156 l 338 436 z "},"ł":{"ha":481,"x_min":0,"x_max":0,"o":"m 429 532 l 429 693 l 325 639 l 325 1014 l 157 1014 l 157 554 l 51 500 l 51 339 l 157 393 l 157 0 l 325 0 l 325 478 z "},"Ń":{"ha":1097,"x_min":0,"x_max":0,"o":"m 479 1051 l 610 1051 l 788 1186 l 635 1253 z m 125 0 l 293 0 l 293 692 l 829 0 l 972 0 l 972 972 l 804 972 l 804 300 l 283 972 l 125 972 z "},"ń":{"ha":861,"x_min":0,"x_max":0,"o":"m 367 826 l 493 826 l 664 986 l 511 1054 z m 106 0 l 274 0 l 274 414 b 439 596 274 528 342 596 b 596 417 539 596 596 531 l 596 0 l 764 0 l 764 467 b 503 749 764 638 668 749 b 274 619 389 749 321 689 l 274 733 l 106 733 z "},"Ň":{"ha":1097,"x_min":0,"x_max":0,"o":"m 796 1239 l 657 1239 l 550 1160 l 443 1239 l 301 1239 l 469 1051 l 628 1051 z m 125 0 l 293 0 l 293 692 l 829 0 l 972 0 l 972 972 l 804 972 l 804 300 l 283 972 l 125 972 z "},"ň":{"ha":861,"x_min":0,"x_max":0,"o":"m 674 1031 l 543 1031 l 435 938 l 328 1031 l 194 1031 l 356 826 l 511 826 z m 106 0 l 274 0 l 274 414 b 439 596 274 528 342 596 b 596 417 539 596 596 531 l 596 0 l 764 0 l 764 467 b 503 749 764 638 668 749 b 274 619 389 749 321 689 l 274 733 l 106 733 z "},"Ņ":{"ha":1097,"x_min":0,"x_max":0,"o":"m 454 -371 b 629 -201 568 -365 629 -315 l 629 -82 l 465 -82 l 465 -222 l 540 -222 b 443 -317 544 -276 513 -307 z m 125 0 l 293 0 l 293 692 l 829 0 l 972 0 l 972 972 l 804 972 l 804 300 l 283 972 l 125 972 z "},"ņ":{"ha":861,"x_min":0,"x_max":0,"o":"m 340 -378 b 515 -208 454 -372 515 -322 l 515 -89 l 351 -89 l 351 -229 l 426 -229 b 329 -324 431 -283 399 -314 z m 106 0 l 274 0 l 274 414 b 439 596 274 528 342 596 b 596 417 539 596 596 531 l 596 0 l 764 0 l 764 467 b 503 749 764 638 668 749 b 274 619 389 749 321 689 l 274 733 l 106 733 z "},"Ñ":{"ha":1097,"x_min":0,"x_max":0,"o":"m 382 1038 b 460 1106 403 1083 419 1106 b 664 1051 508 1106 588 1051 b 819 1222 747 1051 789 1114 l 725 1250 b 649 1183 706 1206 689 1183 b 444 1238 600 1183 521 1238 b 289 1067 360 1238 318 1175 z m 125 0 l 293 0 l 293 692 l 829 0 l 972 0 l 972 972 l 804 972 l 804 300 l 283 972 l 125 972 z "},"ñ":{"ha":861,"x_min":0,"x_max":0,"o":"m 106 0 l 274 0 l 274 414 b 439 596 274 528 342 596 b 596 417 539 596 596 531 l 596 0 l 764 0 l 764 467 b 503 749 764 638 668 749 b 274 619 389 749 321 689 l 274 733 l 106 733 z m 269 813 b 346 882 290 860 306 882 b 546 826 396 882 469 826 b 701 1000 631 826 671 888 l 608 1028 b 532 958 588 981 572 958 b 332 1014 482 958 408 1014 b 176 842 247 1014 207 953 z "},"Ó":{"ha":1181,"x_min":0,"x_max":0,"o":"m 521 1067 l 651 1067 l 829 1201 l 676 1268 z m 589 -17 b 1099 486 888 -17 1099 213 l 1099 489 b 592 989 1099 763 890 989 b 82 486 293 989 82 760 l 82 483 b 589 -17 82 210 290 -17 z m 592 140 b 261 486 399 140 261 297 l 261 489 b 589 832 261 678 396 832 b 919 486 782 832 919 675 l 919 483 b 592 140 919 294 785 140 z "},"ó":{"ha":913,"x_min":0,"x_max":0,"o":"m 389 826 l 515 826 l 686 986 l 533 1054 z m 454 -17 b 847 365 681 -17 847 157 l 847 368 b 457 749 847 578 682 749 b 65 365 232 749 65 575 l 65 363 b 454 -17 65 154 231 -17 z m 457 129 b 233 365 326 129 233 238 l 233 368 b 454 601 233 496 319 601 b 679 365 586 601 679 494 l 679 363 b 457 129 679 236 593 129 z "},"Ŏ":{"ha":1181,"x_min":0,"x_max":0,"o":"m 590 1064 b 831 1250 724 1064 819 1131 l 711 1250 b 590 1181 694 1207 660 1181 b 469 1250 521 1181 486 1207 l 350 1250 b 590 1064 361 1131 457 1064 z m 589 -17 b 1099 486 888 -17 1099 213 l 1099 489 b 592 989 1099 763 890 989 b 82 486 293 989 82 760 l 82 483 b 589 -17 82 210 290 -17 z m 592 140 b 261 486 399 140 261 297 l 261 489 b 589 832 261 678 396 832 b 919 486 782 832 919 675 l 919 483 b 592 140 919 294 785 140 z "},"ŏ":{"ha":913,"x_min":0,"x_max":0,"o":"m 454 -17 b 847 365 681 -17 847 157 l 847 368 b 457 749 847 578 682 749 b 65 365 232 749 65 575 l 65 363 b 454 -17 65 154 231 -17 z m 457 129 b 233 365 326 129 233 238 l 233 368 b 454 601 233 496 319 601 b 679 365 586 601 679 494 l 679 363 b 457 129 679 236 593 129 z m 456 824 b 694 1025 589 824 683 897 l 578 1025 b 456 940 561 975 526 940 b 333 1025 385 940 350 975 l 218 1025 b 456 824 228 897 322 824 z "},"Ô":{"ha":1181,"x_min":0,"x_max":0,"o":"m 589 -17 b 1099 486 888 -17 1099 213 l 1099 489 b 592 989 1099 763 890 989 b 82 486 293 989 82 760 l 82 483 b 589 -17 82 210 290 -17 z m 592 140 b 261 486 399 140 261 297 l 261 489 b 589 832 261 678 396 832 b 919 486 782 832 919 675 l 919 483 b 592 140 919 294 785 140 z m 343 1067 l 482 1067 l 589 1147 l 696 1067 l 838 1067 l 669 1254 l 511 1254 z "},"ô":{"ha":913,"x_min":0,"x_max":0,"o":"m 217 826 l 347 826 l 454 919 l 563 826 l 696 826 l 533 1031 l 378 1031 z m 454 -17 b 847 365 681 -17 847 157 l 847 368 b 457 749 847 578 682 749 b 65 365 232 749 65 575 l 65 363 b 454 -17 65 154 231 -17 z m 457 129 b 233 365 326 129 233 238 l 233 368 b 454 601 233 496 319 601 b 679 365 586 601 679 494 l 679 363 b 457 129 679 236 593 129 z "},"Ö":{"ha":1181,"x_min":0,"x_max":0,"o":"m 647 1067 l 819 1067 l 819 1222 l 647 1222 z m 361 1067 l 535 1067 l 535 1222 l 361 1222 z m 589 -17 b 1099 486 888 -17 1099 213 l 1099 489 b 592 989 1099 763 890 989 b 82 486 293 989 82 760 l 82 483 b 589 -17 82 210 290 -17 z m 592 140 b 261 486 399 140 261 297 l 261 489 b 589 832 261 678 396 832 b 919 486 782 832 919 675 l 919 483 b 592 140 919 294 785 140 z "},"ö":{"ha":913,"x_min":0,"x_max":0,"o":"m 506 826 l 676 826 l 676 992 l 506 992 z m 235 826 l 406 826 l 406 992 l 235 992 z m 454 -17 b 847 365 681 -17 847 157 l 847 368 b 457 749 847 578 682 749 b 65 365 232 749 65 575 l 65 363 b 454 -17 65 154 231 -17 z m 457 129 b 233 365 326 129 233 238 l 233 368 b 454 601 233 496 319 601 b 679 365 586 601 679 494 l 679 363 b 457 129 679 236 593 129 z "},"Œ":{"ha":1525,"x_min":0,"x_max":0,"o":"m 599 0 l 1447 0 l 1447 153 l 921 153 l 921 414 l 1378 414 l 1378 567 l 921 567 l 921 819 l 1440 819 l 1440 972 l 599 972 b 82 486 293 972 82 760 l 82 483 b 599 0 82 210 293 0 z m 599 156 b 261 486 394 156 261 296 l 261 489 b 599 817 261 679 394 817 l 750 817 l 750 156 z "},"œ":{"ha":1444,"x_min":0,"x_max":0,"o":"m 446 -17 b 744 138 572 -17 681 44 b 1047 -17 810 42 919 -17 b 1347 121 1181 -17 1276 38 l 1249 208 b 1049 121 1190 151 1132 121 b 838 307 942 121 857 188 l 1376 307 b 1379 354 1378 324 1379 339 b 1029 749 1379 565 1261 749 b 746 597 908 749 807 689 b 453 749 683 688 578 749 b 65 365 235 749 65 575 l 65 363 b 446 -17 65 154 235 -17 z m 836 418 b 1028 611 851 532 924 611 b 1214 418 1139 611 1201 526 z m 453 129 b 233 365 325 129 233 238 l 233 368 b 450 601 233 493 318 601 b 669 365 578 601 669 494 l 669 363 b 453 129 669 236 585 129 z "},"Ò":{"ha":1181,"x_min":0,"x_max":0,"o":"m 501 1268 l 350 1201 l 526 1067 l 658 1067 z m 589 -17 b 1099 486 888 -17 1099 213 l 1099 489 b 592 989 1099 763 890 989 b 82 486 293 989 82 760 l 82 483 b 589 -17 82 210 290 -17 z m 592 140 b 261 486 399 140 261 297 l 261 489 b 589 832 261 678 396 832 b 919 486 782 832 919 675 l 919 483 b 592 140 919 294 785 140 z "},"ò":{"ha":913,"x_min":0,"x_max":0,"o":"m 454 -17 b 847 365 681 -17 847 157 l 847 368 b 457 749 847 578 682 749 b 65 365 232 749 65 575 l 65 363 b 454 -17 65 154 231 -17 z m 457 129 b 233 365 326 129 233 238 l 233 368 b 454 601 233 496 319 601 b 679 365 586 601 679 494 l 679 363 b 457 129 679 236 593 129 z m 396 826 l 522 826 l 378 1054 l 225 986 z "},"Ő":{"ha":1181,"x_min":0,"x_max":0,"o":"m 589 -17 b 1099 486 888 -17 1099 213 l 1099 489 b 592 989 1099 763 890 989 b 82 486 293 989 82 760 l 82 483 b 589 -17 82 210 290 -17 z m 592 140 b 261 486 399 140 261 297 l 261 489 b 589 832 261 678 396 832 b 919 486 782 832 919 675 l 919 483 b 592 140 919 294 785 140 z m 390 1067 l 517 1067 l 693 1201 l 546 1268 z m 633 1067 l 760 1067 l 936 1201 l 789 1268 z "},"ő":{"ha":913,"x_min":0,"x_max":0,"o":"m 497 826 l 619 826 l 790 986 l 643 1054 z m 261 826 l 383 826 l 551 986 l 404 1054 z m 454 -17 b 847 365 681 -17 847 157 l 847 368 b 457 749 847 578 682 749 b 65 365 232 749 65 575 l 65 363 b 454 -17 65 154 231 -17 z m 457 129 b 233 365 326 129 233 238 l 233 368 b 454 601 233 496 319 601 b 679 365 586 601 679 494 l 679 363 b 457 129 679 236 593 129 z "},"Ō":{"ha":1181,"x_min":0,"x_max":0,"o":"m 342 1082 l 840 1082 l 840 1207 l 342 1207 z m 589 -17 b 1099 486 888 -17 1099 213 l 1099 489 b 592 989 1099 763 890 989 b 82 486 293 989 82 760 l 82 483 b 589 -17 82 210 290 -17 z m 592 140 b 261 486 399 140 261 297 l 261 489 b 589 832 261 678 396 832 b 919 486 782 832 919 675 l 919 483 b 592 140 919 294 785 140 z "},"ō":{"ha":913,"x_min":0,"x_max":0,"o":"m 219 842 l 692 842 l 692 964 l 219 964 z m 454 -17 b 847 365 681 -17 847 157 l 847 368 b 457 749 847 578 682 749 b 65 365 232 749 65 575 l 65 363 b 454 -17 65 154 231 -17 z m 457 129 b 233 365 326 129 233 238 l 233 368 b 454 601 233 496 319 601 b 679 365 586 601 679 494 l 679 363 b 457 129 679 236 593 129 z "},"Ø":{"ha":1181,"x_min":0,"x_max":0,"o":"m 589 -17 b 1099 486 888 -17 1099 213 l 1099 489 b 972 824 1099 617 1053 736 l 1110 979 l 942 979 l 875 906 b 592 989 796 958 700 989 b 82 486 293 989 82 760 l 82 483 b 208 147 82 356 128 236 l 71 -7 l 239 -7 l 306 67 b 589 -17 385 14 481 -17 z m 322 279 b 258 486 281 338 258 408 l 258 489 b 589 835 258 679 396 835 b 767 779 657 835 718 814 z m 592 138 b 414 193 524 138 463 158 l 858 693 b 922 486 900 635 922 564 l 922 483 b 592 138 922 293 785 138 z "},"ø":{"ha":913,"x_min":0,"x_max":0,"o":"m 454 -17 b 847 365 681 -17 847 157 l 847 368 b 756 615 847 464 814 550 b 868 742 797 663 868 742 l 715 742 l 667 689 b 457 749 608 726 536 749 b 65 365 232 749 65 575 l 65 363 b 156 117 65 269 99 183 l 44 -7 l 197 -7 l 244 43 b 454 -17 304 6 376 -17 z m 264 239 b 229 365 242 275 229 319 l 229 368 b 454 606 229 497 317 606 b 567 572 497 606 535 593 z m 457 126 b 344 158 415 126 376 138 l 649 493 b 683 365 669 457 683 413 l 683 363 b 457 126 683 235 596 126 z "},"Ǿ":{"ha":1181,"x_min":0,"x_max":0,"o":"m 589 -17 b 1099 486 888 -17 1099 213 l 1099 489 b 972 824 1099 617 1053 736 l 1110 979 l 942 979 l 875 906 b 592 989 796 958 700 989 b 82 486 293 989 82 760 l 82 483 b 208 147 82 356 128 236 l 71 -7 l 239 -7 l 306 67 b 589 -17 385 14 481 -17 z m 322 279 b 258 486 281 338 258 408 l 258 489 b 589 835 258 679 396 835 b 767 779 657 835 718 814 z m 592 138 b 414 193 524 138 463 158 l 858 693 b 922 486 900 635 922 564 l 922 483 b 592 138 922 293 785 138 z m 521 1067 l 651 1067 l 829 1201 l 676 1268 z "},"ǿ":{"ha":913,"x_min":0,"x_max":0,"o":"m 454 -17 b 847 365 681 -17 847 157 l 847 368 b 756 615 847 464 814 550 b 868 742 797 663 868 742 l 715 742 l 667 689 b 457 749 608 726 536 749 b 65 365 232 749 65 575 l 65 363 b 156 117 65 269 99 183 l 44 -7 l 197 -7 l 244 43 b 454 -17 304 6 376 -17 z m 264 239 b 229 365 242 275 229 319 l 229 368 b 454 606 229 497 317 606 b 567 572 497 606 535 593 z m 457 126 b 344 158 415 126 376 138 l 649 493 b 683 365 669 457 683 413 l 683 363 b 457 126 683 235 596 126 z m 389 826 l 515 826 l 686 986 l 533 1054 z "},"Õ":{"ha":1181,"x_min":0,"x_max":0,"o":"m 424 1053 b 501 1121 444 1099 461 1121 b 706 1067 550 1121 629 1067 b 861 1238 789 1067 831 1129 l 767 1265 b 690 1199 747 1221 731 1199 b 486 1253 642 1199 563 1253 b 331 1082 401 1253 360 1190 z m 589 -17 b 1099 486 888 -17 1099 213 l 1099 489 b 592 989 1099 763 890 989 b 82 486 293 989 82 760 l 82 483 b 589 -17 82 210 290 -17 z m 592 140 b 261 486 399 140 261 297 l 261 489 b 589 832 261 678 396 832 b 919 486 782 832 919 675 l 919 483 b 592 140 919 294 785 140 z "},"õ":{"ha":913,"x_min":0,"x_max":0,"o":"m 454 -17 b 847 365 681 -17 847 157 l 847 368 b 457 749 847 578 682 749 b 65 365 232 749 65 575 l 65 363 b 454 -17 65 154 231 -17 z m 457 129 b 233 365 326 129 233 238 l 233 368 b 454 601 233 496 319 601 b 679 365 586 601 679 494 l 679 363 b 457 129 679 236 593 129 z m 292 813 b 368 882 313 860 328 882 b 568 826 418 882 492 826 b 724 1000 653 826 693 888 l 631 1028 b 554 958 610 981 594 958 b 354 1014 504 958 431 1014 b 199 842 269 1014 229 953 z "},"Ŕ":{"ha":1004,"x_min":0,"x_max":0,"o":"m 125 0 l 296 0 l 296 339 l 510 339 l 749 0 l 950 0 l 688 368 b 919 663 824 407 919 503 l 919 665 b 839 875 919 750 890 822 b 558 972 776 936 681 972 l 125 972 z m 296 490 l 296 817 l 544 817 b 746 656 671 817 746 760 l 746 653 b 546 490 746 554 668 490 z m 421 1053 l 551 1053 l 729 1188 l 576 1254 z "},"ŕ":{"ha":574,"x_min":0,"x_max":0,"o":"m 243 826 l 369 826 l 540 986 l 388 1054 z m 106 0 l 274 0 l 274 279 b 524 569 274 474 376 569 l 533 569 l 533 747 b 274 568 404 753 319 678 l 274 733 l 106 733 z "},"Ř":{"ha":1004,"x_min":0,"x_max":0,"o":"m 125 0 l 296 0 l 296 339 l 510 339 l 749 0 l 950 0 l 688 368 b 919 663 824 407 919 503 l 919 665 b 839 875 919 750 890 822 b 558 972 776 936 681 972 l 125 972 z m 296 490 l 296 817 l 544 817 b 746 656 671 817 746 760 l 746 653 b 546 490 746 554 668 490 z m 736 1240 l 597 1240 l 490 1161 l 383 1240 l 242 1240 l 410 1053 l 568 1053 z "},"ř":{"ha":574,"x_min":0,"x_max":0,"o":"m 551 1031 l 421 1031 l 313 938 l 206 1031 l 72 1031 l 233 826 l 389 826 z m 106 0 l 274 0 l 274 279 b 524 569 274 474 376 569 l 533 569 l 533 747 b 274 568 404 753 319 678 l 274 733 l 106 733 z "},"Ŗ":{"ha":1004,"x_min":0,"x_max":0,"o":"m 125 0 l 296 0 l 296 339 l 510 339 l 749 0 l 950 0 l 688 368 b 919 663 824 407 919 503 l 919 665 b 839 875 919 750 890 822 b 558 972 776 936 681 972 l 125 972 z m 296 490 l 296 817 l 544 817 b 746 656 671 817 746 760 l 746 653 b 546 490 746 554 668 490 z m 396 -371 b 571 -201 510 -365 571 -315 l 571 -82 l 407 -82 l 407 -222 l 482 -222 b 385 -317 486 -276 454 -307 z "},"ŗ":{"ha":574,"x_min":0,"x_max":0,"o":"m 106 -378 b 281 -208 219 -372 281 -322 l 281 -89 l 117 -89 l 117 -229 l 192 -229 b 94 -324 196 -283 164 -314 z m 106 0 l 274 0 l 274 279 b 524 569 274 474 376 569 l 533 569 l 533 747 b 274 568 404 753 319 678 l 274 733 l 106 733 z "},"Ś":{"ha":889,"x_min":0,"x_max":0,"o":"m 465 -14 b 813 276 669 -14 813 94 l 813 279 b 500 564 813 440 706 514 b 269 717 314 608 269 642 l 269 719 b 428 835 269 783 328 835 b 692 735 517 835 604 800 l 783 864 b 431 986 685 943 572 986 b 99 704 238 986 99 871 l 99 701 b 422 411 99 522 215 461 b 642 263 603 369 642 332 l 642 260 b 469 138 642 186 575 138 b 163 264 349 138 256 183 l 60 142 b 465 -14 176 38 317 -14 z m 382 1067 l 513 1067 l 690 1201 l 538 1268 z "},"ś":{"ha":696,"x_min":0,"x_max":0,"o":"m 285 826 l 411 826 l 582 986 l 429 1054 z m 357 -14 b 629 217 510 -14 629 63 l 629 219 b 401 433 629 351 508 400 b 236 536 315 461 236 483 l 236 539 b 339 613 236 582 274 613 b 546 543 400 613 475 586 l 613 663 b 343 746 535 714 435 746 b 82 522 197 746 82 661 l 82 519 b 311 304 82 379 203 335 b 475 201 397 278 475 258 l 475 199 b 361 119 475 150 433 119 b 121 210 286 119 200 150 l 46 96 b 357 -14 138 24 253 -14 z "},"Š":{"ha":889,"x_min":0,"x_max":0,"o":"m 465 -14 b 813 276 669 -14 813 94 l 813 279 b 500 564 813 440 706 514 b 269 717 314 608 269 642 l 269 719 b 428 835 269 783 328 835 b 692 735 517 835 604 800 l 783 864 b 431 986 685 943 572 986 b 99 704 238 986 99 871 l 99 701 b 422 411 99 522 215 461 b 642 263 603 369 642 332 l 642 260 b 469 138 642 186 575 138 b 163 264 349 138 256 183 l 60 142 b 465 -14 176 38 317 -14 z m 699 1254 l 560 1254 l 453 1175 l 346 1254 l 204 1254 l 372 1067 l 531 1067 z "},"š":{"ha":696,"x_min":0,"x_max":0,"o":"m 592 1031 l 461 1031 l 353 938 l 246 1031 l 113 1031 l 274 826 l 429 826 z m 357 -14 b 629 217 510 -14 629 63 l 629 219 b 401 433 629 351 508 400 b 236 536 315 461 236 483 l 236 539 b 339 613 236 582 274 613 b 546 543 400 613 475 586 l 613 663 b 343 746 535 714 435 746 b 82 522 197 746 82 661 l 82 519 b 311 304 82 379 203 335 b 475 201 397 278 475 258 l 475 199 b 361 119 475 150 433 119 b 121 210 286 119 200 150 l 46 96 b 357 -14 138 24 253 -14 z "},"Ş":{"ha":889,"x_min":0,"x_max":0,"o":"m 426 -231 l 519 -11 b 813 276 694 7 813 111 l 813 279 b 500 564 813 440 706 514 b 269 717 314 608 269 642 l 269 719 b 428 835 269 783 328 835 b 692 735 517 835 604 800 l 783 864 b 431 986 685 943 572 986 b 99 704 238 986 99 871 l 99 701 b 422 411 99 522 215 461 b 642 263 603 369 642 332 l 642 260 b 469 138 642 186 575 138 b 163 264 349 138 256 183 l 60 142 b 388 -8 156 56 268 6 l 279 -168 z "},"ş":{"ha":696,"x_min":0,"x_max":0,"o":"m 314 -231 l 407 -11 b 629 217 535 4 629 79 l 629 219 b 401 433 629 351 508 400 b 236 536 315 461 236 483 l 236 539 b 339 613 236 582 274 613 b 546 543 400 613 475 586 l 613 663 b 343 746 535 714 435 746 b 82 522 197 746 82 661 l 82 519 b 311 304 82 379 203 335 b 475 201 397 278 475 258 l 475 199 b 361 119 475 150 433 119 b 121 210 286 119 200 150 l 46 96 b 276 -7 114 42 196 7 l 167 -168 z "},"Ș":{"ha":889,"x_min":0,"x_max":0,"o":"m 357 -382 b 532 -212 471 -376 532 -326 l 532 -93 l 368 -93 l 368 -233 l 443 -233 b 346 -328 447 -287 415 -318 z m 465 -14 b 813 276 669 -14 813 94 l 813 279 b 500 564 813 440 706 514 b 269 717 314 608 269 642 l 269 719 b 428 835 269 783 328 835 b 692 735 517 835 604 800 l 783 864 b 431 986 685 943 572 986 b 99 704 238 986 99 871 l 99 701 b 422 411 99 522 215 461 b 642 263 603 369 642 332 l 642 260 b 469 138 642 186 575 138 b 163 264 349 138 256 183 l 60 142 b 465 -14 176 38 317 -14 z "},"ș":{"ha":696,"x_min":0,"x_max":0,"o":"m 258 -378 b 433 -208 372 -372 433 -322 l 433 -89 l 269 -89 l 269 -229 l 344 -229 b 247 -324 349 -283 317 -314 z m 357 -14 b 629 217 510 -14 629 63 l 629 219 b 401 433 629 351 508 400 b 236 536 315 461 236 483 l 236 539 b 339 613 236 582 274 613 b 546 543 400 613 475 586 l 613 663 b 343 746 535 714 435 746 b 82 522 197 746 82 661 l 82 519 b 311 304 82 379 203 335 b 475 201 397 278 475 258 l 475 199 b 361 119 475 150 433 119 b 121 210 286 119 200 150 l 46 96 b 357 -14 138 24 253 -14 z "},"Ť":{"ha":900,"x_min":0,"x_max":0,"o":"m 697 1240 l 558 1240 l 451 1161 l 344 1240 l 203 1240 l 371 1053 l 529 1053 z m 364 0 l 536 0 l 536 814 l 844 814 l 844 972 l 56 972 l 56 814 l 364 814 z "},"ť":{"ha":571,"x_min":0,"x_max":0,"o":"m 421 818 l 490 818 l 568 1078 l 568 1082 l 438 1082 z m 351 -12 b 503 25 414 -12 461 1 l 503 163 b 399 138 469 146 436 138 b 308 229 342 138 308 164 l 308 589 l 506 589 l 506 733 l 308 733 l 308 935 l 140 935 l 140 733 l 47 733 l 47 589 l 140 589 l 140 203 b 351 -12 140 42 228 -12 z "},"Ţ":{"ha":900,"x_min":0,"x_max":0,"o":"m 356 -378 b 531 -208 469 -372 531 -322 l 531 -89 l 367 -89 l 367 -229 l 442 -229 b 344 -324 446 -283 414 -314 z m 364 0 l 536 0 l 536 814 l 844 814 l 844 972 l 56 972 l 56 814 l 364 814 z "},"ţ":{"ha":571,"x_min":0,"x_max":0,"o":"m 217 -378 b 392 -208 331 -372 392 -322 l 392 -89 l 228 -89 l 228 -229 l 303 -229 b 206 -324 307 -283 275 -314 z m 351 -12 b 503 25 414 -12 461 1 l 503 163 b 399 138 469 146 436 138 b 308 229 342 138 308 164 l 308 589 l 506 589 l 506 733 l 308 733 l 308 935 l 140 935 l 140 733 l 47 733 l 47 589 l 140 589 l 140 203 b 351 -12 140 42 228 -12 z "},"Þ":{"ha":935,"x_min":0,"x_max":0,"o":"m 296 315 l 296 665 l 494 665 b 704 492 622 665 704 606 l 704 489 b 494 315 704 388 624 315 z m 489 161 b 878 493 703 161 878 275 l 878 496 b 508 821 878 692 735 821 l 296 821 l 296 972 l 125 972 l 125 0 l 296 0 l 296 161 z "},"þ":{"ha":932,"x_min":0,"x_max":0,"o":"m 106 -222 l 274 -222 l 274 114 b 524 -15 325 46 401 -15 b 864 365 697 -15 864 122 l 864 368 b 522 749 864 611 696 749 b 274 611 404 749 328 688 l 274 1014 l 106 1014 z m 483 131 b 269 365 369 131 269 224 l 269 368 b 483 603 269 508 369 603 b 693 368 597 603 693 510 l 693 365 b 483 131 693 221 599 131 z "},"Ú":{"ha":1051,"x_min":0,"x_max":0,"o":"m 457 1051 l 588 1051 l 765 1186 l 613 1253 z m 524 -15 b 942 421 778 -15 942 131 l 942 972 l 771 972 l 771 413 b 526 142 771 233 678 142 b 281 419 374 142 281 239 l 281 972 l 110 972 l 110 413 b 524 -15 110 131 271 -15 z "},"ú":{"ha":861,"x_min":0,"x_max":0,"o":"m 358 826 l 485 826 l 656 986 l 503 1054 z m 358 -15 b 588 114 472 -15 540 44 l 588 0 l 756 0 l 756 733 l 588 733 l 588 319 b 422 138 588 206 519 138 b 265 317 322 138 265 203 l 265 733 l 97 733 l 97 267 b 358 -15 97 96 193 -15 z "},"Ŭ":{"ha":1051,"x_min":0,"x_max":0,"o":"m 525 1039 b 765 1225 658 1039 754 1106 l 646 1225 b 525 1156 629 1182 594 1156 b 404 1225 456 1156 421 1182 l 285 1225 b 525 1039 296 1106 392 1039 z m 524 -15 b 942 421 778 -15 942 131 l 942 972 l 771 972 l 771 413 b 526 142 771 233 678 142 b 281 419 374 142 281 239 l 281 972 l 110 972 l 110 413 b 524 -15 110 131 271 -15 z "},"ŭ":{"ha":861,"x_min":0,"x_max":0,"o":"m 358 -15 b 588 114 472 -15 540 44 l 588 0 l 756 0 l 756 733 l 588 733 l 588 319 b 422 138 588 206 519 138 b 265 317 322 138 265 203 l 265 733 l 97 733 l 97 267 b 358 -15 97 96 193 -15 z m 425 824 b 664 1025 558 824 653 897 l 547 1025 b 425 940 531 975 496 940 b 303 1025 354 940 319 975 l 188 1025 b 425 824 197 897 292 824 z "},"Û":{"ha":1051,"x_min":0,"x_max":0,"o":"m 524 -15 b 942 421 778 -15 942 131 l 942 972 l 771 972 l 771 413 b 526 142 771 233 678 142 b 281 419 374 142 281 239 l 281 972 l 110 972 l 110 413 b 524 -15 110 131 271 -15 z m 278 1051 l 417 1051 l 524 1132 l 631 1051 l 772 1051 l 604 1239 l 446 1239 z "},"û":{"ha":861,"x_min":0,"x_max":0,"o":"m 186 826 l 317 826 l 424 919 l 532 826 l 665 826 l 503 1031 l 347 1031 z m 358 -15 b 588 114 472 -15 540 44 l 588 0 l 756 0 l 756 733 l 588 733 l 588 319 b 422 138 588 206 519 138 b 265 317 322 138 265 203 l 265 733 l 97 733 l 97 267 b 358 -15 97 96 193 -15 z "},"Ü":{"ha":1051,"x_min":0,"x_max":0,"o":"m 582 1051 l 754 1051 l 754 1207 l 582 1207 z m 296 1051 l 469 1051 l 469 1207 l 296 1207 z m 524 -15 b 942 421 778 -15 942 131 l 942 972 l 771 972 l 771 413 b 526 142 771 233 678 142 b 281 419 374 142 281 239 l 281 972 l 110 972 l 110 413 b 524 -15 110 131 271 -15 z "},"ü":{"ha":861,"x_min":0,"x_max":0,"o":"m 475 826 l 646 826 l 646 992 l 475 992 z m 204 826 l 375 826 l 375 992 l 204 992 z m 358 -15 b 588 114 472 -15 540 44 l 588 0 l 756 0 l 756 733 l 588 733 l 588 319 b 422 138 588 206 519 138 b 265 317 322 138 265 203 l 265 733 l 97 733 l 97 267 b 358 -15 97 96 193 -15 z "},"Ù":{"ha":1051,"x_min":0,"x_max":0,"o":"m 438 1253 l 286 1186 l 463 1051 l 594 1051 z m 524 -15 b 942 421 778 -15 942 131 l 942 972 l 771 972 l 771 413 b 526 142 771 233 678 142 b 281 419 374 142 281 239 l 281 972 l 110 972 l 110 413 b 524 -15 110 131 271 -15 z "},"ù":{"ha":861,"x_min":0,"x_max":0,"o":"m 358 -15 b 588 114 472 -15 540 44 l 588 0 l 756 0 l 756 733 l 588 733 l 588 319 b 422 138 588 206 519 138 b 265 317 322 138 265 203 l 265 733 l 97 733 l 97 267 b 358 -15 97 96 193 -15 z m 365 826 l 492 826 l 347 1054 l 194 986 z "},"Ű":{"ha":1051,"x_min":0,"x_max":0,"o":"m 524 -15 b 942 421 778 -15 942 131 l 942 972 l 771 972 l 771 413 b 526 142 771 233 678 142 b 281 419 374 142 281 239 l 281 972 l 110 972 l 110 413 b 524 -15 110 131 271 -15 z m 325 1051 l 451 1051 l 628 1186 l 481 1253 z m 568 1051 l 694 1051 l 871 1186 l 724 1253 z "},"ű":{"ha":861,"x_min":0,"x_max":0,"o":"m 358 -15 b 588 114 472 -15 540 44 l 588 0 l 756 0 l 756 733 l 588 733 l 588 319 b 422 138 588 206 519 138 b 265 317 322 138 265 203 l 265 733 l 97 733 l 97 267 b 358 -15 97 96 193 -15 z m 467 826 l 589 826 l 760 986 l 613 1054 z m 231 826 l 353 826 l 521 986 l 374 1054 z "},"Ū":{"ha":1051,"x_min":0,"x_max":0,"o":"m 276 1067 l 775 1067 l 775 1192 l 276 1192 z m 524 -15 b 942 421 778 -15 942 131 l 942 972 l 771 972 l 771 413 b 526 142 771 233 678 142 b 281 419 374 142 281 239 l 281 972 l 110 972 l 110 413 b 524 -15 110 131 271 -15 z "},"ū":{"ha":861,"x_min":0,"x_max":0,"o":"m 358 -15 b 588 114 472 -15 540 44 l 588 0 l 756 0 l 756 733 l 588 733 l 588 319 b 422 138 588 206 519 138 b 265 317 322 138 265 203 l 265 733 l 97 733 l 97 267 b 358 -15 97 96 193 -15 z m 189 842 l 661 842 l 661 964 l 189 964 z "},"Ų":{"ha":1051,"x_min":0,"x_max":0,"o":"m 636 -228 l 636 -147 b 536 -87 569 -147 536 -128 b 569 -12 536 -64 544 -40 b 942 421 797 4 942 149 l 942 972 l 771 972 l 771 413 b 526 142 771 233 678 142 b 281 419 374 142 281 239 l 281 972 l 110 972 l 110 413 b 454 -11 110 157 242 14 b 408 -114 425 -44 408 -76 b 636 -228 408 -187 489 -242 z "},"ų":{"ha":861,"x_min":0,"x_max":0,"o":"m 358 -15 b 588 114 472 -15 540 44 l 588 0 l 600 0 b 544 -114 565 -36 544 -72 b 772 -228 544 -187 625 -242 l 772 -147 b 672 -87 706 -147 672 -128 b 718 0 672 -61 685 -33 l 756 0 l 756 733 l 588 733 l 588 319 b 422 138 588 206 519 138 b 265 317 322 138 265 203 l 265 733 l 97 733 l 97 267 b 358 -15 97 96 193 -15 z "},"Ů":{"ha":1051,"x_min":0,"x_max":0,"o":"m 524 -15 b 942 421 778 -15 942 131 l 942 972 l 771 972 l 771 413 b 526 142 771 233 678 142 b 281 419 374 142 281 239 l 281 972 l 110 972 l 110 413 b 524 -15 110 131 271 -15 z m 360 1167 b 525 1019 360 1081 436 1019 b 690 1167 614 1019 690 1081 b 525 1313 690 1251 614 1313 b 360 1167 436 1313 360 1251 z m 436 1167 b 525 1247 436 1211 472 1247 b 615 1167 578 1247 615 1211 b 525 1085 615 1121 578 1085 b 436 1167 472 1085 436 1121 z "},"ů":{"ha":861,"x_min":0,"x_max":0,"o":"m 264 961 b 425 806 264 875 336 806 b 586 961 514 806 586 875 b 425 1117 586 1047 514 1117 b 264 961 336 1117 264 1047 z m 332 961 b 425 1054 332 1013 374 1054 b 518 961 476 1054 518 1013 b 425 868 518 910 476 868 b 332 961 374 868 332 910 z m 358 -15 b 588 114 472 -15 540 44 l 588 0 l 756 0 l 756 733 l 588 733 l 588 319 b 422 138 588 206 519 138 b 265 317 322 138 265 203 l 265 733 l 97 733 l 97 267 b 358 -15 97 96 193 -15 z "},"Ẃ":{"ha":1550,"x_min":0,"x_max":0,"o":"m 706 1053 l 836 1053 l 1014 1188 l 861 1254 z m 389 -7 l 536 -7 l 775 692 l 1014 -7 l 1161 -7 l 1500 972 l 1321 972 l 1089 251 l 850 975 l 706 975 l 467 251 l 235 972 l 50 972 z "},"ẃ":{"ha":1196,"x_min":0,"x_max":0,"o":"m 529 826 l 656 826 l 826 986 l 674 1054 z m 282 -6 l 432 -6 l 597 496 l 761 -6 l 911 -6 l 1151 733 l 983 733 l 833 231 l 669 736 l 526 736 l 364 231 l 217 733 l 44 733 z "},"Ŵ":{"ha":1550,"x_min":0,"x_max":0,"o":"m 389 -7 l 536 -7 l 775 692 l 1014 -7 l 1161 -7 l 1500 972 l 1321 972 l 1089 251 l 850 975 l 706 975 l 467 251 l 235 972 l 50 972 z m 528 1053 l 667 1053 l 774 1133 l 881 1053 l 1022 1053 l 854 1240 l 696 1240 z "},"ŵ":{"ha":1196,"x_min":0,"x_max":0,"o":"m 358 826 l 489 826 l 596 919 l 704 826 l 838 826 l 675 1031 l 519 1031 z m 282 -6 l 432 -6 l 597 496 l 761 -6 l 911 -6 l 1151 733 l 983 733 l 833 231 l 669 736 l 526 736 l 364 231 l 217 733 l 44 733 z "},"Ẅ":{"ha":1550,"x_min":0,"x_max":0,"o":"m 832 1053 l 1004 1053 l 1004 1208 l 832 1208 z m 546 1053 l 719 1053 l 719 1208 l 546 1208 z m 389 -7 l 536 -7 l 775 692 l 1014 -7 l 1161 -7 l 1500 972 l 1321 972 l 1089 251 l 850 975 l 706 975 l 467 251 l 235 972 l 50 972 z "},"ẅ":{"ha":1196,"x_min":0,"x_max":0,"o":"m 647 826 l 818 826 l 818 992 l 647 992 z m 376 826 l 547 826 l 547 992 l 376 992 z m 282 -6 l 432 -6 l 597 496 l 761 -6 l 911 -6 l 1151 733 l 983 733 l 833 231 l 669 736 l 526 736 l 364 231 l 217 733 l 44 733 z "},"Ẁ":{"ha":1550,"x_min":0,"x_max":0,"o":"m 686 1254 l 535 1188 l 711 1053 l 843 1053 z m 389 -7 l 536 -7 l 775 692 l 1014 -7 l 1161 -7 l 1500 972 l 1321 972 l 1089 251 l 850 975 l 706 975 l 467 251 l 235 972 l 50 972 z "},"ẁ":{"ha":1196,"x_min":0,"x_max":0,"o":"m 282 -6 l 432 -6 l 597 496 l 761 -6 l 911 -6 l 1151 733 l 983 733 l 833 231 l 669 736 l 526 736 l 364 231 l 217 733 l 44 733 z m 538 826 l 664 826 l 519 1054 l 367 986 z "},"Ý":{"ha":994,"x_min":0,"x_max":0,"o":"m 411 0 l 583 0 l 583 388 l 969 972 l 774 972 l 499 542 l 226 972 l 25 972 l 411 383 z m 428 1051 l 558 1051 l 736 1186 l 583 1253 z "},"ý":{"ha":828,"x_min":0,"x_max":0,"o":"m 256 -226 b 497 -21 374 -226 439 -171 l 789 733 l 614 733 l 424 189 l 215 733 l 36 733 l 342 0 b 238 -85 314 -64 285 -85 b 139 -57 203 -85 169 -74 l 82 -182 b 256 -226 133 -210 185 -226 z m 347 826 l 474 826 l 644 986 l 492 1054 z "},"Ŷ":{"ha":994,"x_min":0,"x_max":0,"o":"m 411 0 l 583 0 l 583 388 l 969 972 l 774 972 l 499 542 l 226 972 l 25 972 l 411 383 z m 250 1051 l 389 1051 l 496 1132 l 603 1051 l 744 1051 l 576 1239 l 418 1239 z "},"ŷ":{"ha":828,"x_min":0,"x_max":0,"o":"m 256 -226 b 497 -21 374 -226 439 -171 l 789 733 l 614 733 l 424 189 l 215 733 l 36 733 l 342 0 b 238 -85 314 -64 285 -85 b 139 -57 203 -85 169 -74 l 82 -182 b 256 -226 133 -210 185 -226 z m 175 826 l 306 826 l 413 919 l 521 826 l 654 826 l 492 1031 l 336 1031 z "},"Ÿ":{"ha":994,"x_min":0,"x_max":0,"o":"m 411 0 l 583 0 l 583 388 l 969 972 l 774 972 l 499 542 l 226 972 l 25 972 l 411 383 z m 554 1051 l 726 1051 l 726 1207 l 554 1207 z m 268 1051 l 442 1051 l 442 1207 l 268 1207 z "},"ÿ":{"ha":828,"x_min":0,"x_max":0,"o":"m 256 -226 b 497 -21 374 -226 439 -171 l 789 733 l 614 733 l 424 189 l 215 733 l 36 733 l 342 0 b 238 -85 314 -64 285 -85 b 139 -57 203 -85 169 -74 l 82 -182 b 256 -226 133 -210 185 -226 z m 464 826 l 635 826 l 635 992 l 464 992 z m 193 826 l 364 826 l 364 992 l 193 992 z "},"Ỳ":{"ha":994,"x_min":0,"x_max":0,"o":"m 411 0 l 583 0 l 583 388 l 969 972 l 774 972 l 499 542 l 226 972 l 25 972 l 411 383 z m 408 1253 l 257 1186 l 433 1051 l 565 1051 z "},"ỳ":{"ha":828,"x_min":0,"x_max":0,"o":"m 256 -226 b 497 -21 374 -226 439 -171 l 789 733 l 614 733 l 424 189 l 215 733 l 36 733 l 342 0 b 238 -85 314 -64 285 -85 b 139 -57 203 -85 169 -74 l 82 -182 b 256 -226 133 -210 185 -226 z m 354 826 l 481 826 l 336 1054 l 183 986 z "},"Ź":{"ha":975,"x_min":0,"x_max":0,"o":"m 90 0 l 886 0 l 886 151 l 313 151 l 886 846 l 886 972 l 108 972 l 108 821 l 664 821 l 90 126 z m 428 1053 l 558 1053 l 736 1188 l 583 1254 z "},"ź":{"ha":778,"x_min":0,"x_max":0,"o":"m 325 826 l 451 826 l 622 986 l 469 1054 z m 72 0 l 710 0 l 710 138 l 286 138 l 710 618 l 710 733 l 88 733 l 88 596 l 496 596 l 72 115 z "},"Ž":{"ha":975,"x_min":0,"x_max":0,"o":"m 743 1240 l 604 1240 l 497 1161 l 390 1240 l 249 1240 l 417 1053 l 575 1053 z m 90 0 l 886 0 l 886 151 l 313 151 l 886 846 l 886 972 l 108 972 l 108 821 l 664 821 l 90 126 z "},"ž":{"ha":778,"x_min":0,"x_max":0,"o":"m 632 1031 l 501 1031 l 393 938 l 286 1031 l 153 1031 l 314 826 l 469 826 z m 72 0 l 710 0 l 710 138 l 286 138 l 710 618 l 710 733 l 88 733 l 88 596 l 496 596 l 72 115 z "},"Ż":{"ha":975,"x_min":0,"x_max":0,"o":"m 407 1053 l 585 1053 l 585 1208 l 407 1208 z m 90 0 l 886 0 l 886 151 l 313 151 l 886 846 l 886 972 l 108 972 l 108 821 l 664 821 l 90 126 z "},"ż":{"ha":778,"x_min":0,"x_max":0,"o":"m 72 0 l 710 0 l 710 138 l 286 138 l 710 618 l 710 733 l 88 733 l 88 596 l 496 596 l 72 115 z m 304 826 l 479 826 l 479 992 l 304 992 z "},"ə":{"ha":839,"x_min":0,"x_max":0,"o":"m 397 750 b 97 613 263 750 167 696 l 196 525 b 394 613 254 582 313 613 b 606 426 503 613 588 546 l 67 426 b 64 379 65 410 64 394 b 415 -15 64 168 182 -15 b 774 367 625 -15 774 157 l 774 369 b 397 750 774 596 610 750 z m 607 315 b 417 122 592 201 519 122 b 231 315 306 122 242 207 z "},"ß":{"ha":861,"x_min":0,"x_max":0,"o":"m 411 -3 b 793 272 644 -10 793 93 l 793 275 b 582 522 793 414 690 486 b 735 760 663 567 735 635 l 735 763 b 436 1024 735 908 625 1024 b 106 697 233 1024 106 899 l 106 0 l 272 0 l 272 703 b 428 881 272 811 336 881 b 568 747 513 881 568 828 l 568 744 b 411 551 568 653 500 594 l 411 438 b 625 279 538 422 625 369 l 625 276 b 411 126 625 182 546 131 z "},"ﬀ":{"ha":1044,"x_min":0,"x_max":0,"o":"m 665 0 l 833 0 l 833 589 l 1025 589 l 1025 728 l 831 728 l 831 768 b 928 879 831 844 864 879 b 1026 861 964 879 993 872 l 1026 1003 b 889 1022 989 1014 949 1022 b 725 964 818 1022 764 1003 b 665 782 686 925 665 864 l 665 729 l 572 729 l 572 589 l 665 589 z m 143 0 l 311 0 l 311 589 l 503 589 l 503 728 l 308 728 l 308 768 b 406 879 308 844 342 879 b 504 861 442 879 471 872 l 504 1003 b 368 1022 467 1014 426 1022 b 203 964 296 1022 242 1003 b 143 782 164 925 143 864 l 143 729 l 50 729 l 50 589 l 143 589 z "},"ﬁ":{"ha":919,"x_min":0,"x_max":0,"o":"m 631 846 l 811 846 l 811 1006 l 631 1006 z m 143 0 l 311 0 l 311 589 l 503 589 l 503 728 l 308 728 l 308 768 b 406 879 308 844 342 879 b 504 861 442 879 471 872 l 504 1003 b 368 1022 467 1014 426 1022 b 203 964 296 1022 242 1003 b 143 782 164 925 143 864 l 143 729 l 50 729 l 50 589 l 143 589 z m 638 0 l 806 0 l 806 733 l 638 733 z "},"ﬂ":{"ha":919,"x_min":0,"x_max":0,"o":"m 143 0 l 311 0 l 311 589 l 503 589 l 503 728 l 308 728 l 308 768 b 406 879 308 844 342 879 b 504 861 442 879 471 872 l 504 1003 b 368 1022 467 1014 426 1022 b 203 964 296 1022 242 1003 b 143 782 164 925 143 864 l 143 729 l 50 729 l 50 589 l 143 589 z m 638 0 l 806 0 l 806 1014 l 638 1014 z "},"ﬃ":{"ha":1442,"x_min":0,"x_max":0,"o":"m 1153 846 l 1333 846 l 1333 1006 l 1153 1006 z m 665 0 l 833 0 l 833 589 l 1025 589 l 1025 728 l 831 728 l 831 768 b 928 879 831 844 864 879 b 1026 861 964 879 993 872 l 1026 1003 b 889 1022 989 1014 949 1022 b 725 964 818 1022 764 1003 b 665 782 686 925 665 864 l 665 729 l 572 729 l 572 589 l 665 589 z m 143 0 l 311 0 l 311 589 l 503 589 l 503 728 l 308 728 l 308 768 b 406 879 308 844 342 879 b 504 861 442 879 471 872 l 504 1003 b 368 1022 467 1014 426 1022 b 203 964 296 1022 242 1003 b 143 782 164 925 143 864 l 143 729 l 50 729 l 50 589 l 143 589 z m 1158 0 l 1328 0 l 1328 733 l 1158 733 z "},"ﬄ":{"ha":1442,"x_min":0,"x_max":0,"o":"m 665 0 l 833 0 l 833 589 l 1025 589 l 1025 728 l 831 728 l 831 768 b 928 879 831 844 864 879 b 1026 861 964 879 993 872 l 1026 1003 b 889 1022 989 1014 949 1022 b 725 964 818 1022 764 1003 b 665 782 686 925 665 864 l 665 729 l 572 729 l 572 589 l 665 589 z m 143 0 l 311 0 l 311 589 l 503 589 l 503 728 l 308 728 l 308 768 b 406 879 308 844 342 879 b 504 861 442 879 471 872 l 504 1003 b 368 1022 467 1014 426 1022 b 203 964 296 1022 242 1003 b 143 782 164 925 143 864 l 143 729 l 50 729 l 50 589 l 143 589 z m 1158 0 l 1328 0 l 1328 1014 l 1158 1014 z "},".":{"ha":374,"x_min":0,"x_max":0,"o":"m 94 0 l 279 0 l 279 190 l 94 190 z "},",":{"ha":374,"x_min":0,"x_max":0,"o":"m 65 -201 b 279 29 206 -190 279 -125 l 279 190 l 94 190 l 94 0 l 165 0 b 47 -131 172 -71 132 -114 z "},":":{"ha":388,"x_min":0,"x_max":0,"o":"m 101 543 l 286 543 l 286 733 l 101 733 z m 101 0 l 286 0 l 286 190 l 101 190 z "},";":{"ha":388,"x_min":0,"x_max":0,"o":"m 101 543 l 286 543 l 286 733 l 101 733 z m 72 -201 b 286 29 213 -190 286 -125 l 286 190 l 101 190 l 101 0 l 172 0 b 54 -131 179 -71 139 -114 z "},"…":{"ha":1100,"x_min":0,"x_max":0,"o":"m 825 0 l 1006 0 l 1006 186 l 825 186 z m 460 0 l 640 0 l 640 186 l 460 186 z m 94 0 l 275 0 l 275 186 l 94 186 z "},"·":{"ha":374,"x_min":0,"x_max":0,"o":"m 94 331 l 279 331 l 279 521 l 94 521 z "},"•":{"ha":682,"x_min":0,"x_max":0,"o":"m 340 293 b 538 488 449 293 538 379 l 538 490 b 340 685 538 599 447 685 b 144 490 235 685 144 599 l 144 488 b 340 293 144 379 233 293 z "},"&":{"ha":967,"x_min":0,"x_max":0,"o":"m 799 -19 l 925 71 l 772 226 b 904 449 822 294 865 371 l 775 517 b 671 329 743 449 708 385 l 504 499 b 718 751 633 547 718 624 l 718 754 b 460 989 718 885 614 989 b 181 744 286 989 181 875 l 181 742 b 261 539 181 671 206 610 b 54 267 128 482 54 392 l 54 264 b 371 -14 54 96 190 -14 b 669 113 489 -14 586 35 z m 414 590 b 340 735 360 650 340 686 l 340 738 b 456 854 340 806 386 854 b 567 744 521 854 567 810 l 567 742 b 414 590 567 672 514 626 z m 389 128 b 226 269 294 128 226 188 l 226 272 b 356 433 226 335 265 394 l 572 213 b 389 128 517 160 456 128 z "},"!":{"ha":419,"x_min":0,"x_max":0,"o":"m 164 307 l 257 307 l 308 924 l 308 972 l 111 972 l 111 924 z m 118 0 l 303 0 l 303 190 l 118 190 z "},"¡":{"ha":419,"x_min":0,"x_max":0,"o":"m 118 782 l 303 782 l 303 972 l 118 972 z m 111 0 l 308 0 l 308 49 l 257 665 l 164 665 l 111 49 z "},"?":{"ha":751,"x_min":0,"x_max":0,"o":"m 288 307 l 400 307 l 414 419 b 693 700 568 446 693 525 l 693 703 b 368 985 693 876 563 985 b 33 831 218 985 114 922 l 138 719 b 364 829 204 790 276 829 b 524 697 464 829 524 775 l 524 694 b 267 539 524 603 443 546 l 260 532 z m 247 0 l 433 0 l 433 190 l 247 190 z "},"¿":{"ha":751,"x_min":0,"x_max":0,"o":"m 318 782 l 504 782 l 504 972 l 318 972 z m 383 -12 b 718 142 533 -12 638 50 l 614 253 b 388 143 547 182 475 143 b 228 275 288 143 228 197 l 228 278 b 485 433 228 369 308 426 l 492 440 l 464 665 l 351 665 l 338 553 b 58 272 183 526 58 447 l 58 269 b 383 -12 58 96 189 -12 z "},"“":{"ha":696,"x_min":0,"x_max":0,"o":"m 410 586 l 594 586 l 594 778 l 522 778 b 642 907 517 849 557 892 l 624 979 b 410 749 483 968 410 903 z m 88 586 l 272 586 l 272 778 l 201 778 b 319 907 194 849 235 892 l 301 979 b 88 749 161 968 88 903 z "},"”":{"ha":696,"x_min":0,"x_max":0,"o":"m 394 579 b 608 810 535 590 608 656 l 608 972 l 424 972 l 424 782 l 494 782 b 376 651 501 710 461 667 z m 72 579 b 286 810 213 590 286 656 l 286 972 l 101 972 l 101 782 l 172 782 b 54 651 179 710 139 667 z "},"‘":{"ha":374,"x_min":0,"x_max":0,"o":"m 88 586 l 272 586 l 272 778 l 201 778 b 319 907 194 849 235 892 l 301 979 b 88 749 161 968 88 903 z "},"’":{"ha":374,"x_min":0,"x_max":0,"o":"m 72 579 b 286 810 213 590 286 656 l 286 972 l 101 972 l 101 782 l 172 782 b 54 651 179 710 139 667 z "},"„":{"ha":696,"x_min":0,"x_max":0,"o":"m 388 -201 b 601 29 528 -190 601 -125 l 601 190 l 417 190 l 417 0 l 488 0 b 369 -131 494 -71 454 -114 z m 65 -201 b 279 29 206 -190 279 -125 l 279 190 l 94 190 l 94 0 l 165 0 b 47 -131 172 -71 132 -114 z "},"‚":{"ha":374,"x_min":0,"x_max":0,"o":"m 65 -201 b 279 29 206 -190 279 -125 l 279 190 l 94 190 l 94 0 l 165 0 b 47 -131 172 -71 132 -114 z "},"«":{"ha":842,"x_min":0,"x_max":0,"o":"m 640 57 l 768 122 l 585 368 l 768 613 l 640 678 l 411 372 l 411 361 z m 292 57 l 419 122 l 236 368 l 419 613 l 292 678 l 61 372 l 61 361 z "},"»":{"ha":842,"x_min":0,"x_max":0,"o":"m 550 57 l 781 361 l 781 372 l 550 678 l 422 611 l 606 365 l 422 121 z m 201 57 l 431 361 l 431 372 l 201 678 l 74 611 l 257 365 l 74 121 z "},"‹":{"ha":492,"x_min":0,"x_max":0,"o":"m 292 57 l 419 122 l 236 368 l 419 613 l 292 678 l 61 372 l 61 361 z "},"›":{"ha":492,"x_min":0,"x_max":0,"o":"m 201 57 l 431 361 l 431 372 l 201 678 l 74 611 l 257 365 l 74 121 z "},"-":{"ha":567,"x_min":0,"x_max":0,"o":"m 78 343 l 489 343 l 489 508 l 78 508 z "},"–":{"ha":733,"x_min":0,"x_max":0,"o":"m 78 346 l 656 346 l 656 506 l 78 506 z "},"—":{"ha":1247,"x_min":0,"x_max":0,"o":"m 78 346 l 1169 346 l 1169 506 l 78 506 z "},"_":{"ha":833,"x_min":0,"x_max":0,"o":"m -3 -222 l 836 -222 l 836 -92 l -3 -92 z "},"/":{"ha":724,"x_min":0,"x_max":0,"o":"m -35 -178 l 111 -178 l 739 1108 l 593 1108 z "},"\\":{"ha":724,"x_min":0,"x_max":0,"o":"m 613 -178 l 758 -178 l 131 1108 l -15 1108 z "},"|":{"ha":460,"x_min":0,"x_max":0,"o":"m 163 -178 l 297 -178 l 297 1108 l 163 1108 z "},"(":{"ha":611,"x_min":0,"x_max":0,"o":"m 472 -196 l 546 -83 b 256 399 349 47 256 192 b 546 881 256 606 349 750 l 472 993 b 88 399 219 854 88 661 b 472 -196 88 136 219 -57 z "},")":{"ha":611,"x_min":0,"x_max":0,"o":"m 140 -196 b 525 399 392 -57 525 136 b 140 993 525 661 392 854 l 67 881 b 357 399 264 750 357 606 b 67 -83 357 192 264 47 z "},"[":{"ha":631,"x_min":0,"x_max":0,"o":"m 122 -181 l 549 -181 l 549 -49 l 282 -49 l 282 840 l 549 840 l 549 972 l 122 972 z "},"]":{"ha":631,"x_min":0,"x_max":0,"o":"m 82 -181 l 510 -181 l 510 972 l 82 972 l 82 840 l 349 840 l 349 -49 l 82 -49 z "},"{":{"ha":676,"x_min":0,"x_max":0,"o":"m 578 -196 l 607 -85 b 418 106 440 -39 418 4 b 421 208 418 133 421 179 b 276 399 421 317 369 368 b 421 589 368 428 421 481 b 418 692 421 618 418 664 b 607 882 418 793 440 836 l 578 993 b 263 715 325 947 263 858 b 265 615 263 694 265 639 b 108 463 265 507 224 463 l 72 463 l 72 335 l 108 335 b 265 182 224 335 265 290 b 263 82 265 158 263 103 b 578 -196 263 -61 325 -150 z "},"}":{"ha":676,"x_min":0,"x_max":0,"o":"m 99 -196 b 414 82 351 -150 414 -61 b 411 182 414 103 411 158 b 568 335 411 290 453 335 l 604 335 l 604 463 l 568 463 b 411 615 453 463 411 507 b 414 715 411 639 414 694 b 99 993 414 858 351 947 l 69 882 b 258 692 236 836 258 793 b 256 589 258 664 256 618 b 400 399 256 481 307 429 b 256 208 308 369 256 317 b 258 106 256 179 258 133 b 69 -85 258 4 236 -39 z "},"@":{"ha":1361,"x_min":0,"x_max":0,"o":"m 693 -225 b 1061 -121 838 -225 954 -186 l 1036 -79 b 693 -172 931 -140 831 -172 b 129 381 363 -172 129 74 b 682 936 129 686 365 936 b 1232 439 997 936 1232 694 b 1049 154 1232 249 1147 154 b 940 253 981 154 940 193 b 947 313 940 265 943 288 l 1008 663 l 874 683 l 857 600 b 661 703 821 656 761 703 b 346 356 500 703 346 551 b 597 93 346 196 458 93 b 813 190 694 93 763 139 b 1018 93 844 139 910 93 b 1288 439 1161 93 1288 206 b 682 989 1288 726 1022 989 b 74 381 342 989 74 713 b 693 -225 74 49 338 -225 z m 635 214 b 488 364 549 214 488 268 b 681 583 488 489 579 583 b 826 433 764 583 826 522 b 635 214 826 313 736 214 z "},"©":{"ha":1153,"x_min":0,"x_max":0,"o":"m 575 -17 b 1079 486 857 -17 1079 213 l 1079 489 b 578 989 1079 763 860 989 b 74 486 296 989 74 760 l 74 483 b 575 -17 74 210 293 -17 z m 575 33 b 126 483 319 33 126 235 l 126 486 b 578 939 126 735 321 939 b 1026 489 833 939 1026 738 l 1026 486 b 575 33 1026 238 832 33 z m 582 221 b 796 315 681 221 740 257 l 729 381 b 585 315 686 340 647 315 b 421 492 490 315 421 396 l 421 494 b 585 671 421 592 490 671 b 726 608 640 671 686 644 l 792 683 b 585 765 742 732 683 765 b 315 493 428 765 315 642 l 315 490 b 582 221 315 340 429 221 z "},"℗":{"ha":1153,"x_min":0,"x_max":0,"o":"m 575 -17 b 1079 486 857 -17 1079 213 l 1079 489 b 578 989 1079 763 860 989 b 74 486 296 989 74 760 l 74 483 b 575 -17 74 210 293 -17 z m 575 33 b 126 483 319 33 126 235 l 126 486 b 578 939 126 735 321 939 b 1026 489 833 939 1026 738 l 1026 486 b 575 33 1026 238 832 33 z m 397 232 l 500 232 l 500 399 l 599 399 b 814 579 715 399 814 460 l 814 582 b 610 760 814 690 735 760 l 397 760 z m 500 489 l 500 668 l 601 668 b 710 581 668 668 710 638 l 710 578 b 601 489 710 525 668 489 z "},"®":{"ha":531,"x_min":0,"x_max":0,"o":"m 265 500 b 507 743 400 500 507 611 l 507 744 b 265 986 507 876 401 986 b 24 743 131 986 24 875 l 24 742 b 265 500 24 610 129 500 z m 265 526 b 51 742 143 526 51 624 l 51 743 b 265 960 51 861 144 960 b 479 744 388 960 479 863 l 479 743 b 265 526 479 625 386 526 z m 165 622 l 226 622 l 226 701 l 265 701 l 319 622 l 393 622 l 329 713 b 385 790 363 724 385 750 b 283 874 385 847 342 874 l 165 874 z m 226 751 l 226 821 l 279 821 b 322 786 306 821 322 808 b 279 751 322 765 307 751 z "},"℠":{"ha":979,"x_min":0,"x_max":0,"o":"m 233 536 b 400 667 331 536 400 586 b 246 793 400 740 339 772 b 142 860 167 811 142 826 b 219 911 142 889 169 911 b 344 867 265 911 306 893 l 388 924 b 221 981 344 960 286 981 b 63 850 125 981 63 926 b 219 724 63 772 125 746 b 321 658 299 706 321 690 b 238 603 321 625 290 603 b 86 663 179 603 131 628 l 42 607 b 233 536 93 563 165 536 z m 494 544 l 574 544 l 574 849 l 706 643 l 714 643 l 846 849 l 846 544 l 925 544 l 925 972 l 840 972 l 711 769 l 582 972 l 494 972 z "},"™":{"ha":958,"x_min":0,"x_max":0,"o":"m 474 544 l 553 544 l 553 849 l 685 643 l 693 643 l 825 849 l 825 544 l 904 544 l 904 972 l 819 972 l 690 769 l 561 972 l 474 972 z m 168 544 l 250 544 l 250 897 l 382 897 l 382 972 l 36 972 l 36 897 l 168 897 z "},"*":{"ha":597,"x_min":0,"x_max":0,"o":"m 250 531 l 347 531 l 328 700 l 467 599 l 517 683 l 358 753 l 517 822 l 467 907 l 328 806 l 347 975 l 250 975 l 269 806 l 131 907 l 81 822 l 239 753 l 81 683 l 131 599 l 269 700 z "},"†":{"ha":569,"x_min":0,"x_max":0,"o":"m 235 331 l 335 331 l 322 713 l 492 700 l 492 799 l 324 786 l 340 972 l 229 972 l 246 786 l 78 799 l 78 700 l 247 713 z "},"‡":{"ha":597,"x_min":0,"x_max":0,"o":"m 243 0 l 354 0 l 338 186 l 506 174 l 506 272 l 338 260 l 349 486 l 338 713 l 506 700 l 506 799 l 338 786 l 354 972 l 243 972 l 260 786 l 92 799 l 92 700 l 260 713 l 249 486 l 260 260 l 92 272 l 92 174 l 260 186 z "},"$":{"ha":892,"x_min":0,"x_max":0,"o":"m 396 -136 l 517 -136 l 517 1 b 813 269 693 17 813 118 l 813 272 b 511 558 813 421 722 506 l 511 822 b 700 733 576 808 639 779 l 778 864 b 517 969 701 921 618 957 l 517 1053 l 396 1053 l 396 972 b 104 707 222 958 104 857 l 104 704 b 401 419 104 549 199 472 l 401 147 b 157 267 311 161 236 203 l 68 140 b 396 3 163 65 275 17 z m 401 588 b 268 714 294 619 268 657 l 268 717 b 401 832 268 778 314 825 z m 511 142 l 511 393 b 649 263 619 361 649 324 l 649 260 b 511 142 649 193 599 149 z "},"£":{"ha":894,"x_min":0,"x_max":0,"o":"m 88 0 l 821 0 l 821 149 l 369 149 l 369 386 l 715 386 l 715 531 l 369 531 l 369 654 b 417 789 369 713 388 758 b 518 828 443 814 475 828 b 693 726 596 828 643 790 l 824 831 b 517 986 757 918 671 986 b 283 900 417 986 338 956 b 197 658 228 844 197 760 l 197 531 l 88 531 l 88 386 l 197 386 l 197 142 l 88 108 z "},"€":{"ha":1000,"x_min":0,"x_max":0,"o":"m 603 -17 b 939 179 761 -17 860 64 l 817 268 b 604 136 753 185 697 136 b 378 313 496 136 415 204 l 678 313 l 678 431 l 353 431 b 350 486 351 449 350 467 l 350 489 b 353 549 350 510 351 531 l 678 549 l 678 667 l 379 667 b 593 836 418 771 494 836 b 807 710 690 836 747 792 l 936 806 b 597 989 863 911 767 989 b 203 667 401 989 258 854 l 72 667 l 72 549 l 181 549 b 178 486 178 529 178 507 l 178 483 b 179 431 178 465 178 449 l 72 431 l 72 313 l 199 313 b 603 -17 251 117 397 -17 z "},"¥":{"ha":953,"x_min":0,"x_max":0,"o":"m 394 0 l 558 0 l 558 142 l 826 142 l 826 265 l 558 265 l 558 367 l 826 367 l 826 490 l 604 490 l 926 972 l 733 972 l 479 565 l 225 972 l 26 972 l 347 490 l 126 490 l 126 367 l 394 367 l 394 265 l 126 265 l 126 142 l 394 142 z "},"¢":{"ha":807,"x_min":0,"x_max":0,"o":"m 292 -8 l 414 -8 l 438 111 l 446 111 b 747 251 583 111 675 169 l 650 347 b 458 257 597 296 536 258 l 549 710 b 644 640 583 694 615 669 l 746 749 b 582 857 701 797 650 836 l 607 981 l 485 981 l 464 875 l 451 875 b 72 493 233 875 72 703 l 72 490 b 319 133 72 326 174 185 z m 354 281 b 236 493 281 319 236 400 l 236 496 b 442 729 236 624 324 726 z "},"#":{"ha":972,"x_min":0,"x_max":0,"o":"m 140 0 l 289 0 l 326 224 l 554 224 l 515 0 l 664 0 l 703 224 l 867 224 l 867 368 l 728 368 l 768 610 l 917 610 l 917 754 l 793 754 l 831 972 l 682 972 l 646 754 l 418 754 l 456 972 l 307 972 l 269 754 l 106 754 l 106 610 l 244 610 l 204 368 l 54 368 l 54 224 l 179 224 z m 351 368 l 393 610 l 621 610 l 579 368 z "},"¶":{"ha":774,"x_min":0,"x_max":0,"o":"m 481 0 l 653 0 l 653 972 l 432 972 b 56 657 210 972 56 854 l 56 654 b 456 339 56 447 228 339 l 481 339 z "},"§":{"ha":878,"x_min":0,"x_max":0,"o":"m 453 -14 b 725 189 624 -14 725 67 l 725 192 b 649 324 725 244 697 294 b 797 485 733 346 797 396 l 797 488 b 497 690 797 589 713 642 b 314 788 347 725 314 750 l 314 790 b 426 858 314 831 353 858 b 650 760 514 858 586 819 l 746 854 b 425 986 668 936 561 986 b 153 783 256 986 153 907 l 153 781 b 229 649 153 728 179 681 b 81 488 144 626 81 578 l 81 485 b 381 282 81 385 165 331 b 564 185 524 250 564 225 l 564 182 b 451 114 564 143 528 114 b 228 213 364 114 292 153 l 132 118 b 453 -14 210 36 317 -14 z m 539 386 b 394 411 507 386 465 393 b 232 508 276 440 232 468 l 232 511 b 339 586 232 554 276 586 b 483 561 371 586 413 579 b 646 464 601 532 646 504 l 646 461 b 539 386 646 418 601 386 z "},"ª":{"ha":542,"x_min":0,"x_max":0,"o":"m 221 560 b 349 615 279 560 319 582 l 349 568 l 443 568 l 443 807 b 400 931 443 858 429 903 b 265 976 371 961 326 976 b 111 942 200 976 158 964 l 138 867 b 253 893 176 882 210 893 b 350 808 315 893 350 863 l 350 801 b 244 817 319 810 289 817 b 78 688 147 817 78 774 l 78 685 b 221 560 78 603 144 560 z m 74 392 l 449 392 l 449 472 l 74 472 z m 246 631 b 174 689 204 631 174 653 l 174 692 b 263 754 174 731 207 754 b 350 739 299 754 326 747 l 350 714 b 246 631 350 665 306 631 z "},"º":{"ha":542,"x_min":0,"x_max":0,"o":"m 269 558 b 481 768 390 558 481 653 l 481 771 b 272 979 481 886 392 979 b 61 769 151 979 61 885 l 61 767 b 269 558 61 651 150 558 z m 71 392 l 471 392 l 471 472 l 71 472 z m 272 644 b 158 768 206 644 158 701 l 158 771 b 269 893 158 838 201 893 b 383 769 336 893 383 836 l 383 767 b 272 644 383 700 340 644 z "},"°":{"ha":654,"x_min":0,"x_max":0,"o":"m 326 529 b 558 754 449 529 558 633 l 558 757 b 326 981 558 878 449 981 b 96 757 206 981 96 878 l 96 754 b 326 529 96 633 206 529 z m 326 621 b 196 754 251 621 196 683 l 196 757 b 326 889 196 828 251 889 b 458 757 403 889 458 828 l 458 754 b 326 621 458 683 403 621 z "},"%":{"ha":1179,"x_min":0,"x_max":0,"o":"m 294 486 b 525 735 432 486 525 600 l 525 738 b 297 983 525 871 433 983 b 67 735 160 983 67 869 l 67 732 b 294 486 67 599 158 486 z m 165 0 l 303 0 l 1014 972 l 876 972 z m 882 -11 b 1113 238 1019 -11 1113 103 l 1113 240 b 885 486 1113 374 1021 486 b 654 238 747 486 654 372 l 654 235 b 882 -11 654 101 746 -11 z m 297 593 b 190 735 235 593 190 656 l 190 738 b 294 876 190 813 229 876 b 401 735 357 876 401 813 l 401 732 b 297 593 401 657 363 593 z m 885 96 b 778 238 822 96 778 158 l 778 240 b 882 379 778 315 817 379 b 989 238 944 379 989 315 l 989 235 b 885 96 989 160 950 96 z "},"‰":{"ha":1706,"x_min":0,"x_max":0,"o":"m 294 486 b 525 735 432 486 525 600 l 525 738 b 297 983 525 871 433 983 b 67 735 160 983 67 869 l 67 732 b 294 486 67 599 158 486 z m 165 0 l 303 0 l 1014 972 l 876 972 z m 1408 -11 b 1639 238 1546 -11 1639 103 l 1639 240 b 1411 486 1639 374 1547 486 b 1181 238 1272 486 1181 372 l 1181 235 b 1408 -11 1181 101 1271 -11 z m 882 -11 b 1113 238 1019 -11 1113 103 l 1113 240 b 885 486 1113 374 1021 486 b 654 238 747 486 654 372 l 654 235 b 882 -11 654 101 746 -11 z m 297 593 b 190 735 235 593 190 656 l 190 738 b 294 876 190 813 229 876 b 401 735 357 876 401 813 l 401 732 b 297 593 401 657 363 593 z m 1411 96 b 1304 238 1349 96 1304 158 l 1304 240 b 1408 379 1304 315 1343 379 b 1515 238 1471 379 1515 315 l 1515 235 b 1411 96 1515 160 1476 96 z m 885 96 b 778 238 822 96 778 158 l 778 240 b 882 379 778 315 817 379 b 989 238 944 379 989 315 l 989 235 b 885 96 989 160 950 96 z "},"\"":{"ha":676,"x_min":0,"x_max":0,"o":"m 388 557 l 475 557 l 611 965 l 611 972 l 421 972 z m 83 557 l 171 557 l 306 965 l 306 972 l 115 972 z "},"'":{"ha":374,"x_min":0,"x_max":0,"o":"m 83 557 l 172 557 l 308 965 l 308 972 l 115 972 z "},"+":{"ha":881,"x_min":0,"x_max":0,"o":"m 361 147 l 519 147 l 519 413 l 786 413 l 786 567 l 519 567 l 519 831 l 361 831 l 361 567 l 94 567 l 94 413 l 361 413 z "},"−":{"ha":881,"x_min":0,"x_max":0,"o":"m 786 411 l 786 568 l 94 568 l 94 411 z "},"÷":{"ha":881,"x_min":0,"x_max":0,"o":"m 347 690 l 533 690 l 533 867 l 347 867 z m 786 417 l 786 561 l 94 561 l 94 417 z m 347 111 l 533 111 l 533 289 l 347 289 z "},"=":{"ha":881,"x_min":0,"x_max":0,"o":"m 106 585 l 775 585 l 775 740 l 106 740 z m 106 238 l 775 238 l 775 393 l 106 393 z "},"×":{"ha":881,"x_min":0,"x_max":0,"o":"m 665 157 l 772 264 l 542 490 l 772 717 l 668 821 l 442 590 l 215 821 l 108 714 l 339 488 l 108 261 l 213 157 l 439 388 z "},"<":{"ha":881,"x_min":0,"x_max":0,"o":"m 757 107 l 757 268 l 260 490 l 757 711 l 757 871 l 93 564 l 93 414 z "},">":{"ha":881,"x_min":0,"x_max":0,"o":"m 125 107 l 789 414 l 789 564 l 125 871 l 125 710 l 621 488 l 125 267 z "},"±":{"ha":881,"x_min":0,"x_max":0,"o":"m 778 518 l 778 667 l 515 665 l 517 922 l 364 922 l 365 665 l 104 667 l 104 518 l 365 518 l 364 263 l 517 263 l 515 518 z m 778 0 l 778 143 l 104 143 l 104 0 z "}," ":{"ha":417,"x_min":0,"x_max":0,"o":""}," ":{"ha":417,"x_min":0,"x_max":0,"o":""}," ":{"ha":1389,"x_min":0,"x_max":0,"o":""}," ":{"ha":694,"x_min":0,"x_max":0,"o":""}," ":{"ha":463,"x_min":0,"x_max":0,"o":""}," ":{"ha":347,"x_min":0,"x_max":0,"o":""}," ":{"ha":185,"x_min":0,"x_max":0,"o":""}," ":{"ha":104,"x_min":0,"x_max":0,"o":""},"ƒ":{"ha":732,"x_min":0,"x_max":0,"o":"m 135 -7 b 379 201 278 -7 353 53 l 432 494 l 633 494 l 633 635 l 457 635 l 474 729 b 586 836 488 804 521 836 b 682 822 615 836 649 831 l 682 964 b 554 979 647 974 607 979 b 311 764 404 979 338 904 l 286 635 l 151 635 l 151 494 l 263 494 l 214 226 b 113 133 203 160 171 133 b 57 138 93 133 76 135 l 57 0 b 135 -7 79 -6 101 -7 z "},"^":{"ha":694,"x_min":0,"x_max":0,"o":"m 78 685 l 204 685 l 346 868 l 488 685 l 617 685 l 407 974 l 288 974 z "},"~":{"ha":688,"x_min":0,"x_max":0,"o":"m 175 318 b 251 388 194 365 211 388 b 450 332 300 388 374 332 b 606 506 535 332 575 393 l 513 533 b 436 464 493 486 476 464 b 238 519 388 464 314 519 b 82 347 153 519 113 458 z "},"⁄":{"ha":625,"x_min":0,"x_max":0,"o":"m -67 0 l 32 0 l 343 467 l 692 972 l 593 972 l 282 506 z "},"´":{"ha":694,"x_min":0,"x_max":0,"o":"m 225 826 l 351 826 l 522 986 l 369 1054 z "},"˝":{"ha":694,"x_min":0,"x_max":0,"o":"m 324 826 l 446 826 l 617 986 l 469 1054 z m 88 826 l 210 826 l 378 986 l 231 1054 z "},"`":{"ha":694,"x_min":0,"x_max":0,"o":"m 343 826 l 469 826 l 325 1054 l 172 986 z "},"ˆ":{"ha":694,"x_min":0,"x_max":0,"o":"m 108 826 l 239 826 l 346 919 l 454 826 l 588 826 l 425 1031 l 269 1031 z "},"ˇ":{"ha":694,"x_min":0,"x_max":0,"o":"m 588 1031 l 457 1031 l 349 938 l 242 1031 l 108 1031 l 269 826 l 425 826 z "},"˘":{"ha":694,"x_min":0,"x_max":0,"o":"m 347 824 b 586 1025 481 824 575 897 l 469 1025 b 347 940 453 975 418 940 b 225 1025 276 940 242 975 l 110 1025 b 347 824 119 897 214 824 z "},"˜":{"ha":694,"x_min":0,"x_max":0,"o":"m 178 813 b 254 882 199 860 214 882 b 454 826 304 882 378 826 b 610 1000 539 826 579 888 l 517 1028 b 440 958 496 981 481 958 b 240 1014 390 958 317 1014 b 85 842 156 1014 115 953 z "},"¯":{"ha":694,"x_min":0,"x_max":0,"o":"m 111 842 l 583 842 l 583 964 l 111 964 z "},"¨":{"ha":694,"x_min":0,"x_max":0,"o":"m 397 826 l 568 826 l 568 992 l 397 992 z m 126 826 l 297 826 l 297 992 l 126 992 z "},"˙":{"ha":694,"x_min":0,"x_max":0,"o":"m 260 826 l 435 826 l 435 992 l 260 992 z "},"˚":{"ha":694,"x_min":0,"x_max":0,"o":"m 186 979 b 347 824 186 893 258 824 b 508 979 436 824 508 893 b 347 1135 508 1065 436 1135 b 186 979 258 1135 186 1065 z m 254 979 b 347 1072 254 1031 296 1072 b 440 979 399 1072 440 1031 b 347 886 440 928 399 886 b 254 979 296 886 254 928 z "},"̦":{"ha":694,"x_min":0,"x_max":0,"o":"m 254 -378 b 429 -208 368 -372 429 -322 l 429 -89 l 265 -89 l 265 -229 l 340 -229 b 243 -324 344 -283 313 -314 z "},"¸":{"ha":694,"x_min":0,"x_max":0,"o":"m 329 -231 l 438 24 l 313 24 l 182 -168 z "},"˛":{"ha":694,"x_min":0,"x_max":0,"o":"m 481 -228 l 481 -147 b 381 -87 414 -147 381 -128 b 438 10 381 -58 396 -29 l 325 17 b 253 -114 281 -26 253 -67 b 481 -228 253 -187 333 -242 z "}}}
